<svg width="256" height="176" viewBox="0 0 256 176" fill="none" xmlns="http://www.w3.org/2000/svg">
<rect width="256" height="176" rx="10" fill="#F9F9FA"/>
<g filter="url(#filter0_f_890_523)">
<rect width="143.08" height="27.44" rx="13.72" transform="matrix(1 0 0 -1 55.56 153.64)" fill="#FF3D77"/>
<path d="M91.4199 25.08C91.1319 24.5253 90.7319 24.1093 90.2199 23.832C89.7079 23.544 89.1159 23.4 88.4439 23.4C87.7079 23.4 87.0519 23.5653 86.4759 23.896C85.8999 24.2267 85.4465 24.696 85.1159 25.304C84.7959 25.912 84.6359 26.616 84.6359 27.416C84.6359 28.216 84.7959 28.9253 85.1159 29.544C85.4465 30.152 85.8999 30.6213 86.4759 30.952C87.0519 31.2827 87.7079 31.448 88.4439 31.448C89.4359 31.448 90.2412 31.1707 90.8599 30.616C91.4785 30.0613 91.8572 29.3093 91.9959 28.36H87.8199V26.904H93.9479V28.328C93.8305 29.192 93.5212 29.9867 93.0199 30.712C92.5292 31.4373 91.8839 32.0187 91.0839 32.456C90.2945 32.8827 89.4145 33.096 88.4439 33.096C87.3985 33.096 86.4439 32.856 85.5799 32.376C84.7159 31.8853 84.0279 31.208 83.5159 30.344C83.0145 29.48 82.7639 28.504 82.7639 27.416C82.7639 26.328 83.0145 25.352 83.5159 24.488C84.0279 23.624 84.7159 22.952 85.5799 22.472C86.4545 21.9813 87.4092 21.736 88.4439 21.736C89.6279 21.736 90.6785 22.0293 91.5959 22.616C92.5239 23.192 93.1959 24.0133 93.6119 25.08H91.4199ZM96.6749 23.016C96.3442 23.016 96.0669 22.904 95.8429 22.68C95.6189 22.456 95.5069 22.1787 95.5069 21.848C95.5069 21.5173 95.6189 21.24 95.8429 21.016C96.0669 20.792 96.3442 20.68 96.6749 20.68C96.9949 20.68 97.2669 20.792 97.4909 21.016C97.7149 21.24 97.8269 21.5173 97.8269 21.848C97.8269 22.1787 97.7149 22.456 97.4909 22.68C97.2669 22.904 96.9949 23.016 96.6749 23.016ZM97.5709 24.184V33H95.7469V24.184H97.5709ZM103.518 24.04C104.2 24.04 104.803 24.1787 105.326 24.456C105.859 24.7227 106.275 25.0587 106.574 25.464V24.184H108.414V33.144C108.414 33.9547 108.243 34.6747 107.902 35.304C107.56 35.944 107.064 36.4453 106.414 36.808C105.774 37.1707 105.006 37.352 104.11 37.352C102.915 37.352 101.923 37.0693 101.134 36.504C100.344 35.9493 99.8963 35.192 99.7896 34.232H101.598C101.736 34.6907 102.03 35.0587 102.478 35.336C102.936 35.624 103.48 35.768 104.11 35.768C104.846 35.768 105.438 35.544 105.886 35.096C106.344 34.648 106.574 33.9973 106.574 33.144V31.672C106.264 32.088 105.843 32.44 105.31 32.728C104.787 33.0053 104.19 33.144 103.518 33.144C102.75 33.144 102.046 32.952 101.406 32.568C100.776 32.1733 100.275 31.6293 99.9016 30.936C99.539 30.232 99.3576 29.4373 99.3576 28.552C99.3576 27.6667 99.539 26.8827 99.9016 26.2C100.275 25.5173 100.776 24.9893 101.406 24.616C102.046 24.232 102.75 24.04 103.518 24.04ZM106.574 28.584C106.574 27.976 106.446 27.448 106.19 27C105.944 26.552 105.619 26.2107 105.214 25.976C104.808 25.7413 104.371 25.624 103.902 25.624C103.432 25.624 102.995 25.7413 102.59 25.976C102.184 26.2 101.854 26.536 101.598 26.984C101.352 27.4213 101.23 27.944 101.23 28.552C101.23 29.16 101.352 29.6933 101.598 30.152C101.854 30.6107 102.184 30.9627 102.59 31.208C103.006 31.4427 103.443 31.56 103.902 31.56C104.371 31.56 104.808 31.4427 105.214 31.208C105.619 30.9733 105.944 30.632 106.19 30.184C106.446 29.7253 106.574 29.192 106.574 28.584ZM110.201 28.552C110.201 27.6667 110.383 26.8827 110.745 26.2C111.119 25.5173 111.62 24.9893 112.249 24.616C112.889 24.232 113.593 24.04 114.361 24.04C115.055 24.04 115.657 24.1787 116.169 24.456C116.692 24.7227 117.108 25.0587 117.417 25.464V24.184H119.257V33H117.417V31.688C117.108 32.104 116.687 32.4507 116.153 32.728C115.62 33.0053 115.012 33.144 114.329 33.144C113.572 33.144 112.879 32.952 112.249 32.568C111.62 32.1733 111.119 31.6293 110.745 30.936C110.383 30.232 110.201 29.4373 110.201 28.552ZM117.417 28.584C117.417 27.976 117.289 27.448 117.033 27C116.788 26.552 116.463 26.2107 116.057 25.976C115.652 25.7413 115.215 25.624 114.745 25.624C114.276 25.624 113.839 25.7413 113.433 25.976C113.028 26.2 112.697 26.536 112.441 26.984C112.196 27.4213 112.073 27.944 112.073 28.552C112.073 29.16 112.196 29.6933 112.441 30.152C112.697 30.6107 113.028 30.9627 113.433 31.208C113.849 31.4427 114.287 31.56 114.745 31.56C115.215 31.56 115.652 31.4427 116.057 31.208C116.463 30.9733 116.788 30.632 117.033 30.184C117.289 29.7253 117.417 29.192 117.417 28.584ZM125.201 28.584C125.201 27.6773 125.383 26.8827 125.745 26.2C126.119 25.5067 126.631 24.9733 127.281 24.6C127.932 24.2267 128.679 24.04 129.521 24.04C130.588 24.04 131.468 24.296 132.161 24.808C132.865 25.3093 133.34 26.0293 133.585 26.968H131.617C131.457 26.5307 131.201 26.1893 130.849 25.944C130.497 25.6987 130.055 25.576 129.521 25.576C128.775 25.576 128.177 25.8427 127.729 26.376C127.292 26.8987 127.073 27.6347 127.073 28.584C127.073 29.5333 127.292 30.2747 127.729 30.808C128.177 31.3413 128.775 31.608 129.521 31.608C130.577 31.608 131.276 31.144 131.617 30.216H133.585C133.329 31.112 132.849 31.8267 132.145 32.36C131.441 32.8827 130.567 33.144 129.521 33.144C128.679 33.144 127.932 32.9573 127.281 32.584C126.631 32.2 126.119 31.6667 125.745 30.984C125.383 30.2907 125.201 29.4907 125.201 28.584ZM139.963 24.04C140.635 24.04 141.232 24.184 141.755 24.472C142.288 24.76 142.704 25.1867 143.003 25.752C143.312 26.3173 143.467 27 143.467 27.8V33H141.659V28.072C141.659 27.2827 141.462 26.68 141.067 26.264C140.672 25.8373 140.134 25.624 139.451 25.624C138.768 25.624 138.224 25.8373 137.819 26.264C137.424 26.68 137.227 27.2827 137.227 28.072V33H135.403V21.16H137.227V25.208C137.536 24.8347 137.926 24.5467 138.395 24.344C138.875 24.1413 139.398 24.04 139.963 24.04ZM145.186 28.552C145.186 27.6667 145.367 26.8827 145.73 26.2C146.103 25.5173 146.604 24.9893 147.234 24.616C147.874 24.232 148.578 24.04 149.346 24.04C150.039 24.04 150.642 24.1787 151.154 24.456C151.676 24.7227 152.092 25.0587 152.402 25.464V24.184H154.242V33H152.402V31.688C152.092 32.104 151.671 32.4507 151.138 32.728C150.604 33.0053 149.996 33.144 149.314 33.144C148.556 33.144 147.863 32.952 147.234 32.568C146.604 32.1733 146.103 31.6293 145.73 30.936C145.367 30.232 145.186 29.4373 145.186 28.552ZM152.402 28.584C152.402 27.976 152.274 27.448 152.018 27C151.772 26.552 151.447 26.2107 151.042 25.976C150.636 25.7413 150.199 25.624 149.73 25.624C149.26 25.624 148.823 25.7413 148.418 25.976C148.012 26.2 147.682 26.536 147.426 26.984C147.18 27.4213 147.058 27.944 147.058 28.552C147.058 29.16 147.18 29.6933 147.426 30.152C147.682 30.6107 148.012 30.9627 148.418 31.208C148.834 31.4427 149.271 31.56 149.73 31.56C150.199 31.56 150.636 31.4427 151.042 31.208C151.447 30.9733 151.772 30.632 152.018 30.184C152.274 29.7253 152.402 29.192 152.402 28.584ZM156.03 28.552C156.03 27.6667 156.211 26.8827 156.574 26.2C156.947 25.5173 157.448 24.9893 158.078 24.616C158.718 24.232 159.427 24.04 160.206 24.04C160.782 24.04 161.347 24.168 161.902 24.424C162.467 24.6693 162.915 25 163.246 25.416V21.16H165.086V33H163.246V31.672C162.947 32.0987 162.531 32.4507 161.998 32.728C161.475 33.0053 160.872 33.144 160.19 33.144C159.422 33.144 158.718 32.952 158.078 32.568C157.448 32.1733 156.947 31.6293 156.574 30.936C156.211 30.232 156.03 29.4373 156.03 28.552ZM163.246 28.584C163.246 27.976 163.118 27.448 162.862 27C162.616 26.552 162.291 26.2107 161.886 25.976C161.48 25.7413 161.043 25.624 160.574 25.624C160.104 25.624 159.667 25.7413 159.262 25.976C158.856 26.2 158.526 26.536 158.27 26.984C158.024 27.4213 157.902 27.944 157.902 28.552C157.902 29.16 158.024 29.6933 158.27 30.152C158.526 30.6107 158.856 30.9627 159.262 31.208C159.678 31.4427 160.115 31.56 160.574 31.56C161.043 31.56 161.48 31.4427 161.886 31.208C162.291 30.9733 162.616 30.632 162.862 30.184C163.118 29.7253 163.246 29.192 163.246 28.584ZM170.681 33.144C169.988 33.144 169.364 33.0213 168.809 32.776C168.265 32.52 167.833 32.1787 167.513 31.752C167.193 31.3147 167.023 30.8293 167.001 30.296H168.889C168.921 30.6693 169.097 30.984 169.417 31.24C169.748 31.4853 170.159 31.608 170.649 31.608C171.161 31.608 171.556 31.512 171.833 31.32C172.121 31.1173 172.265 30.8613 172.265 30.552C172.265 30.2213 172.105 29.976 171.785 29.816C171.476 29.656 170.98 29.48 170.297 29.288C169.636 29.1067 169.097 28.9307 168.681 28.76C168.265 28.5893 167.903 28.328 167.593 27.976C167.295 27.624 167.145 27.16 167.145 26.584C167.145 26.1147 167.284 25.688 167.561 25.304C167.839 24.9093 168.233 24.6 168.745 24.376C169.268 24.152 169.865 24.04 170.537 24.04C171.54 24.04 172.345 24.296 172.953 24.808C173.572 25.3093 173.903 25.9973 173.945 26.872H172.121C172.089 26.4773 171.929 26.1627 171.641 25.928C171.353 25.6933 170.964 25.576 170.473 25.576C169.993 25.576 169.625 25.6667 169.369 25.848C169.113 26.0293 168.985 26.2693 168.985 26.568C168.985 26.8027 169.071 27 169.241 27.16C169.412 27.32 169.62 27.448 169.865 27.544C170.111 27.6293 170.473 27.7413 170.953 27.88C171.593 28.0507 172.116 28.2267 172.521 28.408C172.937 28.5787 173.295 28.8347 173.593 29.176C173.892 29.5173 174.047 29.9707 174.057 30.536C174.057 31.0373 173.919 31.4853 173.641 31.88C173.364 32.2747 172.969 32.584 172.457 32.808C171.956 33.032 171.364 33.144 170.681 33.144Z" fill="#1C1F33"/>
<path d="M65.5268 57.06C65.2868 56.508 64.9188 56.076 64.4228 55.764C63.9348 55.444 63.3588 55.284 62.6948 55.284C62.0708 55.284 61.5108 55.428 61.0148 55.716C60.5188 56.004 60.1268 56.416 59.8388 56.952C59.5508 57.48 59.4068 58.096 59.4068 58.8C59.4068 59.504 59.5508 60.124 59.8388 60.66C60.1268 61.196 60.5188 61.608 61.0148 61.896C61.5108 62.184 62.0708 62.328 62.6948 62.328C63.2788 62.328 63.8028 62.204 64.2668 61.956C64.7388 61.7 65.1148 61.34 65.3948 60.876C65.6828 60.404 65.8468 59.856 65.8868 59.232H62.3588V58.548H66.7748V59.16C66.7348 59.896 66.5348 60.564 66.1748 61.164C65.8148 61.756 65.3308 62.224 64.7228 62.568C64.1228 62.912 63.4468 63.084 62.6948 63.084C61.9188 63.084 61.2148 62.904 60.5828 62.544C59.9508 62.176 59.4508 61.668 59.0828 61.02C58.7228 60.364 58.5428 59.624 58.5428 58.8C58.5428 57.976 58.7228 57.24 59.0828 56.592C59.4508 55.936 59.9508 55.428 60.5828 55.068C61.2148 54.7 61.9188 54.516 62.6948 54.516C63.5908 54.516 64.3748 54.74 65.0468 55.188C65.7188 55.636 66.2068 56.26 66.5108 57.06H65.5268ZM74.2415 59.388C74.2415 59.676 74.2335 59.896 74.2175 60.048H68.7815C68.8055 60.544 68.9255 60.968 69.1415 61.32C69.3575 61.672 69.6415 61.94 69.9935 62.124C70.3455 62.3 70.7295 62.388 71.1455 62.388C71.6895 62.388 72.1455 62.256 72.5135 61.992C72.8895 61.728 73.1375 61.372 73.2575 60.924H74.1455C73.9855 61.564 73.6415 62.088 73.1135 62.496C72.5935 62.896 71.9375 63.096 71.1455 63.096C70.5295 63.096 69.9775 62.96 69.4895 62.688C69.0015 62.408 68.6175 62.016 68.3375 61.512C68.0655 61 67.9295 60.404 67.9295 59.724C67.9295 59.044 68.0655 58.448 68.3375 57.936C68.6095 57.424 68.9895 57.032 69.4775 56.76C69.9655 56.488 70.5215 56.352 71.1455 56.352C71.7695 56.352 72.3135 56.488 72.7775 56.76C73.2495 57.032 73.6095 57.4 73.8575 57.864C74.1135 58.32 74.2415 58.828 74.2415 59.388ZM73.3895 59.364C73.3975 58.876 73.2975 58.46 73.0895 58.116C72.8895 57.772 72.6135 57.512 72.2615 57.336C71.9095 57.16 71.5255 57.072 71.1095 57.072C70.4855 57.072 69.9535 57.272 69.5135 57.672C69.0735 58.072 68.8295 58.636 68.7815 59.364H73.3895ZM76.8704 57.156V61.224C76.8704 61.624 76.9464 61.9 77.0984 62.052C77.2504 62.204 77.5184 62.28 77.9024 62.28H78.6704V63H77.7704C77.1784 63 76.7384 62.864 76.4504 62.592C76.1624 62.312 76.0184 61.856 76.0184 61.224V57.156H75.1064V56.448H76.0184V54.804H76.8704V56.448H78.6704V57.156H76.8704ZM82.9647 59.712C82.9647 59.04 83.0967 58.452 83.3607 57.948C83.6327 57.436 84.0047 57.044 84.4767 56.772C84.9567 56.492 85.4967 56.352 86.0967 56.352C86.7207 56.352 87.2567 56.496 87.7047 56.784C88.1607 57.072 88.4887 57.44 88.6887 57.888V56.448H89.5287V63H88.6887V61.548C88.4807 61.996 88.1487 62.368 87.6927 62.664C87.2447 62.952 86.7087 63.096 86.0847 63.096C85.4927 63.096 84.9567 62.956 84.4767 62.676C84.0047 62.396 83.6327 62 83.3607 61.488C83.0967 60.976 82.9647 60.384 82.9647 59.712ZM88.6887 59.724C88.6887 59.196 88.5807 58.732 88.3647 58.332C88.1487 57.932 87.8527 57.624 87.4767 57.408C87.1087 57.192 86.7007 57.084 86.2527 57.084C85.7887 57.084 85.3727 57.188 85.0047 57.396C84.6367 57.604 84.3447 57.908 84.1287 58.308C83.9207 58.7 83.8167 59.168 83.8167 59.712C83.8167 60.248 83.9207 60.72 84.1287 61.128C84.3447 61.528 84.6367 61.836 85.0047 62.052C85.3727 62.26 85.7887 62.364 86.2527 62.364C86.7007 62.364 87.1087 62.256 87.4767 62.04C87.8527 61.824 88.1487 61.516 88.3647 61.116C88.5807 60.716 88.6887 60.252 88.6887 59.724ZM91.0623 59.724C91.0623 59.044 91.1983 58.452 91.4703 57.948C91.7423 57.436 92.1183 57.044 92.5983 56.772C93.0783 56.492 93.6263 56.352 94.2423 56.352C95.0503 56.352 95.7143 56.552 96.2343 56.952C96.7623 57.352 97.1023 57.896 97.2543 58.584H96.3543C96.2423 58.112 95.9983 57.744 95.6223 57.48C95.2543 57.208 94.7943 57.072 94.2423 57.072C93.8023 57.072 93.4063 57.172 93.0543 57.372C92.7023 57.572 92.4223 57.872 92.2143 58.272C92.0143 58.664 91.9143 59.148 91.9143 59.724C91.9143 60.3 92.0143 60.788 92.2143 61.188C92.4223 61.588 92.7023 61.888 93.0543 62.088C93.4063 62.288 93.8023 62.388 94.2423 62.388C94.7943 62.388 95.2543 62.256 95.6223 61.992C95.9983 61.72 96.2423 61.344 96.3543 60.864H97.2543C97.1023 61.536 96.7623 62.076 96.2343 62.484C95.7063 62.892 95.0423 63.096 94.2423 63.096C93.6263 63.096 93.0783 62.96 92.5983 62.688C92.1183 62.408 91.7423 62.016 91.4703 61.512C91.1983 61 91.0623 60.404 91.0623 59.724ZM98.4217 59.724C98.4217 59.044 98.5577 58.452 98.8297 57.948C99.1017 57.436 99.4777 57.044 99.9577 56.772C100.438 56.492 100.986 56.352 101.602 56.352C102.41 56.352 103.074 56.552 103.594 56.952C104.122 57.352 104.462 57.896 104.614 58.584H103.714C103.602 58.112 103.358 57.744 102.982 57.48C102.614 57.208 102.154 57.072 101.602 57.072C101.162 57.072 100.766 57.172 100.414 57.372C100.062 57.572 99.7817 57.872 99.5737 58.272C99.3737 58.664 99.2737 59.148 99.2737 59.724C99.2737 60.3 99.3737 60.788 99.5737 61.188C99.7817 61.588 100.062 61.888 100.414 62.088C100.766 62.288 101.162 62.388 101.602 62.388C102.154 62.388 102.614 62.256 102.982 61.992C103.358 61.72 103.602 61.344 103.714 60.864H104.614C104.462 61.536 104.122 62.076 103.594 62.484C103.066 62.892 102.402 63.096 101.602 63.096C100.986 63.096 100.438 62.96 99.9577 62.688C99.4777 62.408 99.1017 62.016 98.8297 61.512C98.5577 61 98.4217 60.404 98.4217 59.724ZM112.093 59.388C112.093 59.676 112.085 59.896 112.069 60.048H106.633C106.657 60.544 106.777 60.968 106.993 61.32C107.209 61.672 107.493 61.94 107.845 62.124C108.197 62.3 108.581 62.388 108.997 62.388C109.541 62.388 109.997 62.256 110.365 61.992C110.741 61.728 110.989 61.372 111.109 60.924H111.997C111.837 61.564 111.493 62.088 110.965 62.496C110.445 62.896 109.789 63.096 108.997 63.096C108.381 63.096 107.829 62.96 107.341 62.688C106.853 62.408 106.469 62.016 106.189 61.512C105.917 61 105.781 60.404 105.781 59.724C105.781 59.044 105.917 58.448 106.189 57.936C106.461 57.424 106.841 57.032 107.329 56.76C107.817 56.488 108.373 56.352 108.997 56.352C109.621 56.352 110.165 56.488 110.629 56.76C111.101 57.032 111.461 57.4 111.709 57.864C111.965 58.32 112.093 58.828 112.093 59.388ZM111.241 59.364C111.249 58.876 111.149 58.46 110.941 58.116C110.741 57.772 110.465 57.512 110.113 57.336C109.761 57.16 109.377 57.072 108.961 57.072C108.337 57.072 107.805 57.272 107.365 57.672C106.925 58.072 106.681 58.636 106.633 59.364H111.241ZM115.886 63.096C115.134 63.096 114.518 62.924 114.038 62.58C113.566 62.228 113.302 61.752 113.246 61.152H114.11C114.15 61.52 114.322 61.82 114.626 62.052C114.938 62.276 115.354 62.388 115.874 62.388C116.33 62.388 116.686 62.28 116.942 62.064C117.206 61.848 117.338 61.58 117.338 61.26C117.338 61.036 117.266 60.852 117.122 60.708C116.978 60.564 116.794 60.452 116.57 60.372C116.354 60.284 116.058 60.192 115.682 60.096C115.194 59.968 114.798 59.84 114.494 59.712C114.19 59.584 113.93 59.396 113.714 59.148C113.506 58.892 113.402 58.552 113.402 58.128C113.402 57.808 113.498 57.512 113.69 57.24C113.882 56.968 114.154 56.752 114.506 56.592C114.858 56.432 115.258 56.352 115.706 56.352C116.41 56.352 116.978 56.532 117.41 56.892C117.842 57.244 118.074 57.732 118.106 58.356H117.266C117.242 57.972 117.09 57.664 116.81 57.432C116.538 57.192 116.162 57.072 115.682 57.072C115.258 57.072 114.914 57.172 114.65 57.372C114.386 57.572 114.254 57.82 114.254 58.116C114.254 58.372 114.33 58.584 114.482 58.752C114.642 58.912 114.838 59.04 115.07 59.136C115.302 59.224 115.614 59.324 116.006 59.436C116.478 59.564 116.854 59.688 117.134 59.808C117.414 59.928 117.654 60.104 117.854 60.336C118.054 60.568 118.158 60.876 118.166 61.26C118.166 61.612 118.07 61.928 117.878 62.208C117.686 62.48 117.418 62.696 117.074 62.856C116.73 63.016 116.334 63.096 115.886 63.096ZM122.003 63.096C121.251 63.096 120.635 62.924 120.155 62.58C119.683 62.228 119.419 61.752 119.363 61.152H120.227C120.267 61.52 120.439 61.82 120.743 62.052C121.055 62.276 121.471 62.388 121.991 62.388C122.447 62.388 122.803 62.28 123.059 62.064C123.323 61.848 123.455 61.58 123.455 61.26C123.455 61.036 123.383 60.852 123.239 60.708C123.095 60.564 122.911 60.452 122.687 60.372C122.471 60.284 122.175 60.192 121.799 60.096C121.311 59.968 120.915 59.84 120.611 59.712C120.307 59.584 120.047 59.396 119.831 59.148C119.623 58.892 119.519 58.552 119.519 58.128C119.519 57.808 119.615 57.512 119.807 57.24C119.999 56.968 120.271 56.752 120.623 56.592C120.975 56.432 121.375 56.352 121.823 56.352C122.527 56.352 123.095 56.532 123.527 56.892C123.959 57.244 124.191 57.732 124.223 58.356H123.383C123.359 57.972 123.207 57.664 122.927 57.432C122.655 57.192 122.279 57.072 121.799 57.072C121.375 57.072 121.031 57.172 120.767 57.372C120.503 57.572 120.371 57.82 120.371 58.116C120.371 58.372 120.447 58.584 120.599 58.752C120.759 58.912 120.955 59.04 121.187 59.136C121.419 59.224 121.731 59.324 122.123 59.436C122.595 59.564 122.971 59.688 123.251 59.808C123.531 59.928 123.771 60.104 123.971 60.336C124.171 60.568 124.275 60.876 124.283 61.26C124.283 61.612 124.187 61.928 123.995 62.208C123.803 62.48 123.535 62.696 123.191 62.856C122.847 63.016 122.451 63.096 122.003 63.096ZM130.249 57.156V61.224C130.249 61.624 130.325 61.9 130.477 62.052C130.629 62.204 130.897 62.28 131.281 62.28H132.049V63H131.149C130.557 63 130.117 62.864 129.829 62.592C129.541 62.312 129.397 61.856 129.397 61.224V57.156H128.485V56.448H129.397V54.804H130.249V56.448H132.049V57.156H130.249ZM136.303 63.096C135.687 63.096 135.131 62.96 134.635 62.688C134.147 62.408 133.759 62.016 133.471 61.512C133.191 61 133.051 60.404 133.051 59.724C133.051 59.044 133.195 58.452 133.483 57.948C133.771 57.436 134.163 57.044 134.659 56.772C135.155 56.492 135.711 56.352 136.327 56.352C136.943 56.352 137.499 56.492 137.995 56.772C138.499 57.044 138.891 57.436 139.171 57.948C139.459 58.452 139.603 59.044 139.603 59.724C139.603 60.396 139.459 60.988 139.171 61.5C138.883 62.012 138.487 62.408 137.983 62.688C137.479 62.96 136.919 63.096 136.303 63.096ZM136.303 62.364C136.735 62.364 137.135 62.268 137.503 62.076C137.871 61.876 138.167 61.58 138.391 61.188C138.623 60.788 138.739 60.3 138.739 59.724C138.739 59.148 138.627 58.664 138.403 58.272C138.179 57.872 137.883 57.576 137.515 57.384C137.147 57.184 136.747 57.084 136.315 57.084C135.883 57.084 135.483 57.184 135.115 57.384C134.747 57.576 134.451 57.872 134.227 58.272C134.011 58.664 133.903 59.148 133.903 59.724C133.903 60.3 134.011 60.788 134.227 61.188C134.451 61.58 134.743 61.876 135.103 62.076C135.471 62.268 135.871 62.364 136.303 62.364ZM150.355 59.388C150.355 59.676 150.347 59.896 150.331 60.048H144.895C144.919 60.544 145.039 60.968 145.255 61.32C145.471 61.672 145.755 61.94 146.107 62.124C146.459 62.3 146.843 62.388 147.259 62.388C147.803 62.388 148.259 62.256 148.627 61.992C149.003 61.728 149.251 61.372 149.371 60.924H150.259C150.099 61.564 149.755 62.088 149.227 62.496C148.707 62.896 148.051 63.096 147.259 63.096C146.643 63.096 146.091 62.96 145.603 62.688C145.115 62.408 144.731 62.016 144.451 61.512C144.179 61 144.043 60.404 144.043 59.724C144.043 59.044 144.179 58.448 144.451 57.936C144.723 57.424 145.103 57.032 145.591 56.76C146.079 56.488 146.635 56.352 147.259 56.352C147.883 56.352 148.427 56.488 148.891 56.76C149.363 57.032 149.723 57.4 149.971 57.864C150.227 58.32 150.355 58.828 150.355 59.388ZM149.503 59.364C149.511 58.876 149.411 58.46 149.203 58.116C149.003 57.772 148.727 57.512 148.375 57.336C148.023 57.16 147.639 57.072 147.223 57.072C146.599 57.072 146.067 57.272 145.627 57.672C145.187 58.072 144.943 58.636 144.895 59.364H149.503ZM155.324 63L153.632 60.36L152 63H151.112L153.224 59.724L151.136 56.448H152.084L153.752 59.052L155.372 56.448H156.248L154.16 59.688L156.272 63H155.324ZM157.027 59.724C157.027 59.044 157.163 58.452 157.435 57.948C157.707 57.436 158.083 57.044 158.563 56.772C159.043 56.492 159.591 56.352 160.207 56.352C161.015 56.352 161.679 56.552 162.199 56.952C162.727 57.352 163.067 57.896 163.219 58.584H162.319C162.207 58.112 161.963 57.744 161.587 57.48C161.219 57.208 160.759 57.072 160.207 57.072C159.767 57.072 159.371 57.172 159.019 57.372C158.667 57.572 158.387 57.872 158.179 58.272C157.979 58.664 157.879 59.148 157.879 59.724C157.879 60.3 157.979 60.788 158.179 61.188C158.387 61.588 158.667 61.888 159.019 62.088C159.371 62.288 159.767 62.388 160.207 62.388C160.759 62.388 161.219 62.256 161.587 61.992C161.963 61.72 162.207 61.344 162.319 60.864H163.219C163.067 61.536 162.727 62.076 162.199 62.484C161.671 62.892 161.007 63.096 160.207 63.096C159.591 63.096 159.043 62.96 158.563 62.688C158.083 62.408 157.707 62.016 157.435 61.512C157.163 61 157.027 60.404 157.027 59.724ZM165.611 54.12V63H164.771V54.12H165.611ZM173.189 56.448V63H172.349V61.848C172.157 62.256 171.861 62.568 171.461 62.784C171.061 63 170.613 63.108 170.117 63.108C169.333 63.108 168.693 62.868 168.197 62.388C167.701 61.9 167.453 61.196 167.453 60.276V56.448H168.281V60.18C168.281 60.892 168.457 61.436 168.809 61.812C169.169 62.188 169.657 62.376 170.273 62.376C170.905 62.376 171.409 62.176 171.785 61.776C172.161 61.376 172.349 60.788 172.349 60.012V56.448H173.189ZM177.362 63.096C176.61 63.096 175.994 62.924 175.514 62.58C175.042 62.228 174.778 61.752 174.722 61.152H175.586C175.626 61.52 175.798 61.82 176.102 62.052C176.414 62.276 176.83 62.388 177.35 62.388C177.806 62.388 178.162 62.28 178.418 62.064C178.682 61.848 178.814 61.58 178.814 61.26C178.814 61.036 178.742 60.852 178.598 60.708C178.454 60.564 178.27 60.452 178.046 60.372C177.83 60.284 177.534 60.192 177.158 60.096C176.67 59.968 176.274 59.84 175.97 59.712C175.666 59.584 175.406 59.396 175.19 59.148C174.982 58.892 174.878 58.552 174.878 58.128C174.878 57.808 174.974 57.512 175.166 57.24C175.358 56.968 175.63 56.752 175.982 56.592C176.334 56.432 176.734 56.352 177.182 56.352C177.886 56.352 178.454 56.532 178.886 56.892C179.318 57.244 179.55 57.732 179.582 58.356H178.742C178.718 57.972 178.566 57.664 178.286 57.432C178.014 57.192 177.638 57.072 177.158 57.072C176.734 57.072 176.39 57.172 176.126 57.372C175.862 57.572 175.73 57.82 175.73 58.116C175.73 58.372 175.806 58.584 175.958 58.752C176.118 58.912 176.314 59.04 176.546 59.136C176.778 59.224 177.09 59.324 177.482 59.436C177.954 59.564 178.33 59.688 178.61 59.808C178.89 59.928 179.13 60.104 179.33 60.336C179.53 60.568 179.634 60.876 179.642 61.26C179.642 61.612 179.546 61.928 179.354 62.208C179.162 62.48 178.894 62.696 178.55 62.856C178.206 63.016 177.81 63.096 177.362 63.096ZM181.644 55.212C181.476 55.212 181.332 55.152 181.212 55.032C181.092 54.912 181.032 54.764 181.032 54.588C181.032 54.412 181.092 54.268 181.212 54.156C181.332 54.036 181.476 53.976 181.644 53.976C181.812 53.976 181.956 54.036 182.076 54.156C182.196 54.268 182.256 54.412 182.256 54.588C182.256 54.764 182.196 54.912 182.076 55.032C181.956 55.152 181.812 55.212 181.644 55.212ZM182.064 56.448V63H181.224V56.448H182.064ZM186.294 62.184L188.502 56.448H189.39L186.762 63H185.814L183.186 56.448H184.086L186.294 62.184ZM196.456 59.388C196.456 59.676 196.448 59.896 196.432 60.048H190.996C191.02 60.544 191.14 60.968 191.356 61.32C191.572 61.672 191.856 61.94 192.208 62.124C192.56 62.3 192.944 62.388 193.36 62.388C193.904 62.388 194.36 62.256 194.728 61.992C195.104 61.728 195.352 61.372 195.472 60.924H196.36C196.2 61.564 195.856 62.088 195.328 62.496C194.808 62.896 194.152 63.096 193.36 63.096C192.744 63.096 192.192 62.96 191.704 62.688C191.216 62.408 190.832 62.016 190.552 61.512C190.28 61 190.144 60.404 190.144 59.724C190.144 59.044 190.28 58.448 190.552 57.936C190.824 57.424 191.204 57.032 191.692 56.76C192.18 56.488 192.736 56.352 193.36 56.352C193.984 56.352 194.528 56.488 194.992 56.76C195.464 57.032 195.824 57.4 196.072 57.864C196.328 58.32 196.456 58.828 196.456 59.388ZM195.604 59.364C195.612 58.876 195.512 58.46 195.304 58.116C195.104 57.772 194.828 57.512 194.476 57.336C194.124 57.16 193.74 57.072 193.324 57.072C192.7 57.072 192.168 57.272 191.728 57.672C191.288 58.072 191.044 58.636 190.996 59.364H195.604ZM50.5556 75.9C50.7716 75.444 51.1036 75.072 51.5516 74.784C52.0076 74.496 52.5436 74.352 53.1596 74.352C53.7596 74.352 54.2956 74.492 54.7676 74.772C55.2396 75.044 55.6076 75.436 55.8716 75.948C56.1436 76.452 56.2796 77.04 56.2796 77.712C56.2796 78.384 56.1436 78.976 55.8716 79.488C55.6076 80 55.2356 80.396 54.7556 80.676C54.2836 80.956 53.7516 81.096 53.1596 81.096C52.5356 81.096 51.9956 80.956 51.5396 80.676C51.0916 80.388 50.7636 80.016 50.5556 79.56V81H49.7276V72.12H50.5556V75.9ZM55.4276 77.712C55.4276 77.168 55.3196 76.7 55.1036 76.308C54.8956 75.908 54.6076 75.604 54.2396 75.396C53.8716 75.188 53.4556 75.084 52.9916 75.084C52.5436 75.084 52.1316 75.192 51.7556 75.408C51.3876 75.624 51.0956 75.932 50.8796 76.332C50.6636 76.732 50.5556 77.196 50.5556 77.724C50.5556 78.252 50.6636 78.716 50.8796 79.116C51.0956 79.516 51.3876 79.824 51.7556 80.04C52.1316 80.256 52.5436 80.364 52.9916 80.364C53.4556 80.364 53.8716 80.26 54.2396 80.052C54.6076 79.836 54.8956 79.528 55.1036 79.128C55.3196 78.72 55.4276 78.248 55.4276 77.712ZM63.7532 77.388C63.7532 77.676 63.7452 77.896 63.7292 78.048H58.2932C58.3172 78.544 58.4372 78.968 58.6532 79.32C58.8692 79.672 59.1532 79.94 59.5052 80.124C59.8572 80.3 60.2412 80.388 60.6572 80.388C61.2012 80.388 61.6572 80.256 62.0252 79.992C62.4012 79.728 62.6492 79.372 62.7692 78.924H63.6572C63.4972 79.564 63.1532 80.088 62.6252 80.496C62.1052 80.896 61.4492 81.096 60.6572 81.096C60.0412 81.096 59.4892 80.96 59.0012 80.688C58.5132 80.408 58.1292 80.016 57.8492 79.512C57.5772 79 57.4412 78.404 57.4412 77.724C57.4412 77.044 57.5772 76.448 57.8492 75.936C58.1212 75.424 58.5012 75.032 58.9892 74.76C59.4772 74.488 60.0332 74.352 60.6572 74.352C61.2812 74.352 61.8252 74.488 62.2892 74.76C62.7612 75.032 63.1212 75.4 63.3692 75.864C63.6252 76.32 63.7532 76.828 63.7532 77.388ZM62.9012 77.364C62.9092 76.876 62.8092 76.46 62.6012 76.116C62.4012 75.772 62.1252 75.512 61.7732 75.336C61.4212 75.16 61.0372 75.072 60.6212 75.072C59.9972 75.072 59.4652 75.272 59.0252 75.672C58.5852 76.072 58.3412 76.636 58.2932 77.364H62.9012ZM68.4101 74.328C68.9061 74.328 69.3501 74.432 69.7421 74.64C70.1421 74.848 70.4541 75.168 70.6781 75.6C70.9101 76.024 71.0261 76.544 71.0261 77.16V81H70.1981V77.256C70.1981 76.544 70.0181 76 69.6581 75.624C69.3061 75.248 68.8221 75.06 68.2061 75.06C67.5741 75.06 67.0701 75.26 66.6941 75.66C66.3181 76.06 66.1301 76.648 66.1301 77.424V81H65.2901V72.12H66.1301V75.564C66.3381 75.172 66.6421 74.868 67.0421 74.652C67.4501 74.436 67.9061 74.328 68.4101 74.328ZM73.3038 73.212C73.1358 73.212 72.9918 73.152 72.8718 73.032C72.7518 72.912 72.6918 72.764 72.6918 72.588C72.6918 72.412 72.7518 72.268 72.8718 72.156C72.9918 72.036 73.1358 71.976 73.3038 71.976C73.4718 71.976 73.6158 72.036 73.7358 72.156C73.8558 72.268 73.9158 72.412 73.9158 72.588C73.9158 72.764 73.8558 72.912 73.7358 73.032C73.6158 73.152 73.4718 73.212 73.3038 73.212ZM73.7238 74.448V81H72.8838V74.448H73.7238ZM78.698 74.328C79.482 74.328 80.122 74.572 80.618 75.06C81.114 75.54 81.362 76.24 81.362 77.16V81H80.534V77.256C80.534 76.544 80.354 76 79.994 75.624C79.642 75.248 79.158 75.06 78.542 75.06C77.91 75.06 77.406 75.26 77.03 75.66C76.654 76.06 76.466 76.648 76.466 77.424V81H75.626V74.448H76.466V75.564C76.674 75.164 76.974 74.86 77.366 74.652C77.758 74.436 78.202 74.328 78.698 74.328ZM82.8358 77.712C82.8358 77.04 82.9718 76.452 83.2438 75.948C83.5158 75.436 83.8878 75.044 84.3598 74.772C84.8398 74.492 85.3798 74.352 85.9798 74.352C86.5558 74.352 87.0758 74.492 87.5398 74.772C88.0038 75.052 88.3438 75.416 88.5598 75.864V72.12H89.3998V81H88.5598V79.536C88.3598 79.992 88.0318 80.368 87.5758 80.664C87.1198 80.952 86.5838 81.096 85.9678 81.096C85.3678 81.096 84.8278 80.956 84.3478 80.676C83.8758 80.396 83.5038 80 83.2318 79.488C82.9678 78.976 82.8358 78.384 82.8358 77.712ZM88.5598 77.724C88.5598 77.196 88.4518 76.732 88.2358 76.332C88.0198 75.932 87.7238 75.624 87.3478 75.408C86.9798 75.192 86.5718 75.084 86.1238 75.084C85.6598 75.084 85.2438 75.188 84.8758 75.396C84.5078 75.604 84.2158 75.908 83.9998 76.308C83.7918 76.7 83.6878 77.168 83.6878 77.712C83.6878 78.248 83.7918 78.72 83.9998 79.128C84.2158 79.528 84.5078 79.836 84.8758 80.052C85.2438 80.26 85.6598 80.364 86.1238 80.364C86.5718 80.364 86.9798 80.256 87.3478 80.04C87.7238 79.824 88.0198 79.516 88.2358 79.116C88.4518 78.716 88.5598 78.252 88.5598 77.724ZM95.3854 76.2V76.908H90.7174V76.2H95.3854ZM98.6321 75.156V79.224C98.6321 79.624 98.7081 79.9 98.8601 80.052C99.0121 80.204 99.2801 80.28 99.6641 80.28H100.432V81H99.5321C98.9401 81 98.5001 80.864 98.2121 80.592C97.9241 80.312 97.7801 79.856 97.7801 79.224V75.156H96.8681V74.448H97.7801V72.804H98.6321V74.448H100.432V75.156H98.6321ZM104.937 74.328C105.433 74.328 105.877 74.432 106.269 74.64C106.669 74.848 106.981 75.168 107.205 75.6C107.437 76.024 107.553 76.544 107.553 77.16V81H106.725V77.256C106.725 76.544 106.545 76 106.185 75.624C105.833 75.248 105.349 75.06 104.733 75.06C104.101 75.06 103.597 75.26 103.221 75.66C102.845 76.06 102.657 76.648 102.657 77.424V81H101.817V72.12H102.657V75.564C102.865 75.172 103.169 74.868 103.569 74.652C103.977 74.436 104.433 74.328 104.937 74.328ZM115.339 77.388C115.339 77.676 115.331 77.896 115.315 78.048H109.879C109.903 78.544 110.023 78.968 110.239 79.32C110.455 79.672 110.739 79.94 111.091 80.124C111.443 80.3 111.827 80.388 112.243 80.388C112.787 80.388 113.243 80.256 113.611 79.992C113.987 79.728 114.235 79.372 114.355 78.924H115.243C115.083 79.564 114.739 80.088 114.211 80.496C113.691 80.896 113.035 81.096 112.243 81.096C111.627 81.096 111.075 80.96 110.587 80.688C110.099 80.408 109.715 80.016 109.435 79.512C109.163 79 109.027 78.404 109.027 77.724C109.027 77.044 109.163 76.448 109.435 75.936C109.707 75.424 110.087 75.032 110.575 74.76C111.063 74.488 111.619 74.352 112.243 74.352C112.867 74.352 113.411 74.488 113.875 74.76C114.347 75.032 114.707 75.4 114.955 75.864C115.211 76.32 115.339 76.828 115.339 77.388ZM114.487 77.364C114.495 76.876 114.395 76.46 114.187 76.116C113.987 75.772 113.711 75.512 113.359 75.336C113.007 75.16 112.623 75.072 112.207 75.072C111.583 75.072 111.051 75.272 110.611 75.672C110.171 76.072 109.927 76.636 109.879 77.364H114.487ZM120.944 76.2V76.908H116.276V76.2H120.944ZM125.355 81.096C124.603 81.096 123.987 80.924 123.507 80.58C123.035 80.228 122.771 79.752 122.715 79.152H123.579C123.619 79.52 123.791 79.82 124.095 80.052C124.407 80.276 124.823 80.388 125.343 80.388C125.799 80.388 126.155 80.28 126.411 80.064C126.675 79.848 126.807 79.58 126.807 79.26C126.807 79.036 126.735 78.852 126.591 78.708C126.447 78.564 126.263 78.452 126.039 78.372C125.823 78.284 125.527 78.192 125.151 78.096C124.663 77.968 124.267 77.84 123.963 77.712C123.659 77.584 123.399 77.396 123.183 77.148C122.975 76.892 122.871 76.552 122.871 76.128C122.871 75.808 122.967 75.512 123.159 75.24C123.351 74.968 123.623 74.752 123.975 74.592C124.327 74.432 124.727 74.352 125.175 74.352C125.879 74.352 126.447 74.532 126.879 74.892C127.311 75.244 127.543 75.732 127.575 76.356H126.735C126.711 75.972 126.559 75.664 126.279 75.432C126.007 75.192 125.631 75.072 125.151 75.072C124.727 75.072 124.383 75.172 124.119 75.372C123.855 75.572 123.723 75.82 123.723 76.116C123.723 76.372 123.799 76.584 123.951 76.752C124.111 76.912 124.307 77.04 124.539 77.136C124.771 77.224 125.083 77.324 125.475 77.436C125.947 77.564 126.323 77.688 126.603 77.808C126.883 77.928 127.123 78.104 127.323 78.336C127.523 78.568 127.627 78.876 127.635 79.26C127.635 79.612 127.539 79.928 127.347 80.208C127.155 80.48 126.887 80.696 126.543 80.856C126.199 81.016 125.803 81.096 125.355 81.096ZM128.832 77.724C128.832 77.044 128.968 76.452 129.24 75.948C129.512 75.436 129.888 75.044 130.368 74.772C130.848 74.492 131.396 74.352 132.012 74.352C132.82 74.352 133.484 74.552 134.004 74.952C134.532 75.352 134.872 75.896 135.024 76.584H134.124C134.012 76.112 133.768 75.744 133.392 75.48C133.024 75.208 132.564 75.072 132.012 75.072C131.572 75.072 131.176 75.172 130.824 75.372C130.472 75.572 130.192 75.872 129.984 76.272C129.784 76.664 129.684 77.148 129.684 77.724C129.684 78.3 129.784 78.788 129.984 79.188C130.192 79.588 130.472 79.888 130.824 80.088C131.176 80.288 131.572 80.388 132.012 80.388C132.564 80.388 133.024 80.256 133.392 79.992C133.768 79.72 134.012 79.344 134.124 78.864H135.024C134.872 79.536 134.532 80.076 134.004 80.484C133.476 80.892 132.812 81.096 132.012 81.096C131.396 81.096 130.848 80.96 130.368 80.688C129.888 80.408 129.512 80.016 129.24 79.512C128.968 79 128.832 78.404 128.832 77.724ZM142.503 77.388C142.503 77.676 142.495 77.896 142.479 78.048H137.043C137.067 78.544 137.187 78.968 137.403 79.32C137.619 79.672 137.903 79.94 138.255 80.124C138.607 80.3 138.991 80.388 139.407 80.388C139.951 80.388 140.407 80.256 140.775 79.992C141.151 79.728 141.399 79.372 141.519 78.924H142.407C142.247 79.564 141.903 80.088 141.375 80.496C140.855 80.896 140.199 81.096 139.407 81.096C138.791 81.096 138.239 80.96 137.751 80.688C137.263 80.408 136.879 80.016 136.599 79.512C136.327 79 136.191 78.404 136.191 77.724C136.191 77.044 136.327 76.448 136.599 75.936C136.871 75.424 137.251 75.032 137.739 74.76C138.227 74.488 138.783 74.352 139.407 74.352C140.031 74.352 140.575 74.488 141.039 74.76C141.511 75.032 141.871 75.4 142.119 75.864C142.375 76.32 142.503 76.828 142.503 77.388ZM141.651 77.364C141.659 76.876 141.559 76.46 141.351 76.116C141.151 75.772 140.875 75.512 140.523 75.336C140.171 75.16 139.787 75.072 139.371 75.072C138.747 75.072 138.215 75.272 137.775 75.672C137.335 76.072 137.091 76.636 137.043 77.364H141.651ZM147.112 74.328C147.896 74.328 148.536 74.572 149.032 75.06C149.528 75.54 149.776 76.24 149.776 77.16V81H148.948V77.256C148.948 76.544 148.768 76 148.408 75.624C148.056 75.248 147.572 75.06 146.956 75.06C146.324 75.06 145.82 75.26 145.444 75.66C145.068 76.06 144.88 76.648 144.88 77.424V81H144.04V74.448H144.88V75.564C145.088 75.164 145.388 74.86 145.78 74.652C146.172 74.436 146.616 74.328 147.112 74.328ZM157.562 77.388C157.562 77.676 157.554 77.896 157.538 78.048H152.102C152.126 78.544 152.246 78.968 152.462 79.32C152.678 79.672 152.962 79.94 153.314 80.124C153.666 80.3 154.05 80.388 154.466 80.388C155.01 80.388 155.466 80.256 155.834 79.992C156.21 79.728 156.458 79.372 156.578 78.924H157.466C157.306 79.564 156.962 80.088 156.434 80.496C155.914 80.896 155.258 81.096 154.466 81.096C153.85 81.096 153.298 80.96 152.81 80.688C152.322 80.408 151.938 80.016 151.658 79.512C151.386 79 151.25 78.404 151.25 77.724C151.25 77.044 151.386 76.448 151.658 75.936C151.93 75.424 152.31 75.032 152.798 74.76C153.286 74.488 153.842 74.352 154.466 74.352C155.09 74.352 155.634 74.488 156.098 74.76C156.57 75.032 156.93 75.4 157.178 75.864C157.434 76.32 157.562 76.828 157.562 77.388ZM156.71 77.364C156.718 76.876 156.618 76.46 156.41 76.116C156.21 75.772 155.934 75.512 155.582 75.336C155.23 75.16 154.846 75.072 154.43 75.072C153.806 75.072 153.274 75.272 152.834 75.672C152.394 76.072 152.15 76.636 152.102 77.364H156.71ZM161.355 81.096C160.603 81.096 159.987 80.924 159.507 80.58C159.035 80.228 158.771 79.752 158.715 79.152H159.579C159.619 79.52 159.791 79.82 160.095 80.052C160.407 80.276 160.823 80.388 161.343 80.388C161.799 80.388 162.155 80.28 162.411 80.064C162.675 79.848 162.807 79.58 162.807 79.26C162.807 79.036 162.735 78.852 162.591 78.708C162.447 78.564 162.263 78.452 162.039 78.372C161.823 78.284 161.527 78.192 161.151 78.096C160.663 77.968 160.267 77.84 159.963 77.712C159.659 77.584 159.399 77.396 159.183 77.148C158.975 76.892 158.871 76.552 158.871 76.128C158.871 75.808 158.967 75.512 159.159 75.24C159.351 74.968 159.623 74.752 159.975 74.592C160.327 74.432 160.727 74.352 161.175 74.352C161.879 74.352 162.447 74.532 162.879 74.892C163.311 75.244 163.543 75.732 163.575 76.356H162.735C162.711 75.972 162.559 75.664 162.279 75.432C162.007 75.192 161.631 75.072 161.151 75.072C160.727 75.072 160.383 75.172 160.119 75.372C159.855 75.572 159.723 75.82 159.723 76.116C159.723 76.372 159.799 76.584 159.951 76.752C160.111 76.912 160.307 77.04 160.539 77.136C160.771 77.224 161.083 77.324 161.475 77.436C161.947 77.564 162.323 77.688 162.603 77.808C162.883 77.928 163.123 78.104 163.323 78.336C163.523 78.568 163.627 78.876 163.635 79.26C163.635 79.612 163.539 79.928 163.347 80.208C163.155 80.48 162.887 80.696 162.543 80.856C162.199 81.016 161.803 81.096 161.355 81.096ZM170.837 80.184L173.045 74.448H173.933L171.305 81H170.357L167.729 74.448H168.629L170.837 80.184ZM175.491 73.212C175.323 73.212 175.179 73.152 175.059 73.032C174.939 72.912 174.879 72.764 174.879 72.588C174.879 72.412 174.939 72.268 175.059 72.156C175.179 72.036 175.323 71.976 175.491 71.976C175.659 71.976 175.803 72.036 175.923 72.156C176.043 72.268 176.103 72.412 176.103 72.588C176.103 72.764 176.043 72.912 175.923 73.032C175.803 73.152 175.659 73.212 175.491 73.212ZM175.911 74.448V81H175.071V74.448H175.911ZM177.43 77.712C177.43 77.04 177.566 76.452 177.838 75.948C178.11 75.436 178.482 75.044 178.954 74.772C179.434 74.492 179.974 74.352 180.574 74.352C181.15 74.352 181.67 74.492 182.134 74.772C182.598 75.052 182.938 75.416 183.154 75.864V72.12H183.994V81H183.154V79.536C182.954 79.992 182.626 80.368 182.17 80.664C181.714 80.952 181.178 81.096 180.562 81.096C179.962 81.096 179.422 80.956 178.942 80.676C178.47 80.396 178.098 80 177.826 79.488C177.562 78.976 177.43 78.384 177.43 77.712ZM183.154 77.724C183.154 77.196 183.046 76.732 182.83 76.332C182.614 75.932 182.318 75.624 181.942 75.408C181.574 75.192 181.166 75.084 180.718 75.084C180.254 75.084 179.838 75.188 179.47 75.396C179.102 75.604 178.81 75.908 178.594 76.308C178.386 76.7 178.282 77.168 178.282 77.712C178.282 78.248 178.386 78.72 178.594 79.128C178.81 79.528 179.102 79.836 179.47 80.052C179.838 80.26 180.254 80.364 180.718 80.364C181.166 80.364 181.574 80.256 181.942 80.04C182.318 79.824 182.614 79.516 182.83 79.116C183.046 78.716 183.154 78.252 183.154 77.724ZM191.839 77.388C191.839 77.676 191.831 77.896 191.815 78.048H186.379C186.403 78.544 186.523 78.968 186.739 79.32C186.955 79.672 187.239 79.94 187.591 80.124C187.943 80.3 188.327 80.388 188.743 80.388C189.287 80.388 189.743 80.256 190.111 79.992C190.487 79.728 190.735 79.372 190.855 78.924H191.743C191.583 79.564 191.239 80.088 190.711 80.496C190.191 80.896 189.535 81.096 188.743 81.096C188.127 81.096 187.575 80.96 187.087 80.688C186.599 80.408 186.215 80.016 185.935 79.512C185.663 79 185.527 78.404 185.527 77.724C185.527 77.044 185.663 76.448 185.935 75.936C186.207 75.424 186.587 75.032 187.075 74.76C187.563 74.488 188.119 74.352 188.743 74.352C189.367 74.352 189.911 74.488 190.375 74.76C190.847 75.032 191.207 75.4 191.455 75.864C191.711 76.32 191.839 76.828 191.839 77.388ZM190.987 77.364C190.995 76.876 190.895 76.46 190.687 76.116C190.487 75.772 190.211 75.512 189.859 75.336C189.507 75.16 189.123 75.072 188.707 75.072C188.083 75.072 187.551 75.272 187.111 75.672C186.671 76.072 186.427 76.636 186.379 77.364H190.987ZM196.244 81.096C195.628 81.096 195.072 80.96 194.576 80.688C194.088 80.408 193.7 80.016 193.412 79.512C193.132 79 192.992 78.404 192.992 77.724C192.992 77.044 193.136 76.452 193.424 75.948C193.712 75.436 194.104 75.044 194.6 74.772C195.096 74.492 195.652 74.352 196.268 74.352C196.884 74.352 197.44 74.492 197.936 74.772C198.44 75.044 198.832 75.436 199.112 75.948C199.4 76.452 199.544 77.044 199.544 77.724C199.544 78.396 199.4 78.988 199.112 79.5C198.824 80.012 198.428 80.408 197.924 80.688C197.42 80.96 196.86 81.096 196.244 81.096ZM196.244 80.364C196.676 80.364 197.076 80.268 197.444 80.076C197.812 79.876 198.108 79.58 198.332 79.188C198.564 78.788 198.68 78.3 198.68 77.724C198.68 77.148 198.568 76.664 198.344 76.272C198.12 75.872 197.824 75.576 197.456 75.384C197.088 75.184 196.688 75.084 196.256 75.084C195.824 75.084 195.424 75.184 195.056 75.384C194.688 75.576 194.392 75.872 194.168 76.272C193.952 76.664 193.844 77.148 193.844 77.724C193.844 78.3 193.952 78.788 194.168 79.188C194.392 79.58 194.684 79.876 195.044 80.076C195.412 80.268 195.812 80.364 196.244 80.364ZM203.331 81.096C202.579 81.096 201.963 80.924 201.483 80.58C201.011 80.228 200.747 79.752 200.691 79.152H201.555C201.595 79.52 201.767 79.82 202.071 80.052C202.383 80.276 202.799 80.388 203.319 80.388C203.775 80.388 204.131 80.28 204.387 80.064C204.651 79.848 204.783 79.58 204.783 79.26C204.783 79.036 204.711 78.852 204.567 78.708C204.423 78.564 204.239 78.452 204.015 78.372C203.799 78.284 203.503 78.192 203.127 78.096C202.639 77.968 202.243 77.84 201.939 77.712C201.635 77.584 201.375 77.396 201.159 77.148C200.951 76.892 200.847 76.552 200.847 76.128C200.847 75.808 200.943 75.512 201.135 75.24C201.327 74.968 201.599 74.752 201.951 74.592C202.303 74.432 202.703 74.352 203.151 74.352C203.855 74.352 204.423 74.532 204.855 74.892C205.287 75.244 205.519 75.732 205.551 76.356H204.711C204.687 75.972 204.535 75.664 204.255 75.432C203.983 75.192 203.607 75.072 203.127 75.072C202.703 75.072 202.359 75.172 202.095 75.372C201.831 75.572 201.699 75.82 201.699 76.116C201.699 76.372 201.775 76.584 201.927 76.752C202.087 76.912 202.283 77.04 202.515 77.136C202.747 77.224 203.059 77.324 203.451 77.436C203.923 77.564 204.299 77.688 204.579 77.808C204.859 77.928 205.099 78.104 205.299 78.336C205.499 78.568 205.603 78.876 205.611 79.26C205.611 79.612 205.515 79.928 205.323 80.208C205.131 80.48 204.863 80.696 204.519 80.856C204.175 81.016 203.779 81.096 203.331 81.096ZM51.16 95.712C51.16 95.04 51.292 94.452 51.556 93.948C51.828 93.436 52.2 93.044 52.672 92.772C53.152 92.492 53.692 92.352 54.292 92.352C54.916 92.352 55.452 92.496 55.9 92.784C56.356 93.072 56.684 93.44 56.884 93.888V92.448H57.724V99H56.884V97.548C56.676 97.996 56.344 98.368 55.888 98.664C55.44 98.952 54.904 99.096 54.28 99.096C53.688 99.096 53.152 98.956 52.672 98.676C52.2 98.396 51.828 98 51.556 97.488C51.292 96.976 51.16 96.384 51.16 95.712ZM56.884 95.724C56.884 95.196 56.776 94.732 56.56 94.332C56.344 93.932 56.048 93.624 55.672 93.408C55.304 93.192 54.896 93.084 54.448 93.084C53.984 93.084 53.568 93.188 53.2 93.396C52.832 93.604 52.54 93.908 52.324 94.308C52.116 94.7 52.012 95.168 52.012 95.712C52.012 96.248 52.116 96.72 52.324 97.128C52.54 97.528 52.832 97.836 53.2 98.052C53.568 98.26 53.984 98.364 54.448 98.364C54.896 98.364 55.304 98.256 55.672 98.04C56.048 97.824 56.344 97.516 56.56 97.116C56.776 96.716 56.884 96.252 56.884 95.724ZM62.7136 92.328C63.4976 92.328 64.1376 92.572 64.6336 93.06C65.1296 93.54 65.3776 94.24 65.3776 95.16V99H64.5496V95.256C64.5496 94.544 64.3696 94 64.0096 93.624C63.6576 93.248 63.1736 93.06 62.5576 93.06C61.9256 93.06 61.4216 93.26 61.0456 93.66C60.6696 94.06 60.4816 94.648 60.4816 95.424V99H59.6416V92.448H60.4816V93.564C60.6896 93.164 60.9896 92.86 61.3816 92.652C61.7736 92.436 62.2176 92.328 62.7136 92.328ZM66.8514 95.712C66.8514 95.04 66.9874 94.452 67.2594 93.948C67.5314 93.436 67.9034 93.044 68.3754 92.772C68.8554 92.492 69.3954 92.352 69.9954 92.352C70.5714 92.352 71.0914 92.492 71.5554 92.772C72.0194 93.052 72.3594 93.416 72.5754 93.864V90.12H73.4154V99H72.5754V97.536C72.3754 97.992 72.0474 98.368 71.5914 98.664C71.1354 98.952 70.5994 99.096 69.9834 99.096C69.3834 99.096 68.8434 98.956 68.3634 98.676C67.8914 98.396 67.5194 98 67.2474 97.488C66.9834 96.976 66.8514 96.384 66.8514 95.712ZM72.5754 95.724C72.5754 95.196 72.4674 94.732 72.2514 94.332C72.0354 93.932 71.7394 93.624 71.3634 93.408C70.9954 93.192 70.5874 93.084 70.1394 93.084C69.6754 93.084 69.2594 93.188 68.8914 93.396C68.5234 93.604 68.2314 93.908 68.0154 94.308C67.8074 94.7 67.7034 95.168 67.7034 95.712C67.7034 96.248 67.8074 96.72 68.0154 97.128C68.2314 97.528 68.5234 97.836 68.8914 98.052C69.2594 98.26 69.6754 98.364 70.1394 98.364C70.5874 98.364 70.9954 98.256 71.3634 98.04C71.7394 97.824 72.0354 97.516 72.2514 97.116C72.4674 96.716 72.5754 96.252 72.5754 95.724ZM84.554 95.388C84.554 95.676 84.546 95.896 84.53 96.048H79.094C79.118 96.544 79.238 96.968 79.454 97.32C79.67 97.672 79.954 97.94 80.306 98.124C80.658 98.3 81.042 98.388 81.458 98.388C82.002 98.388 82.458 98.256 82.826 97.992C83.202 97.728 83.45 97.372 83.57 96.924H84.458C84.298 97.564 83.954 98.088 83.426 98.496C82.906 98.896 82.25 99.096 81.458 99.096C80.842 99.096 80.29 98.96 79.802 98.688C79.314 98.408 78.93 98.016 78.65 97.512C78.378 97 78.242 96.404 78.242 95.724C78.242 95.044 78.378 94.448 78.65 93.936C78.922 93.424 79.302 93.032 79.79 92.76C80.278 92.488 80.834 92.352 81.458 92.352C82.082 92.352 82.626 92.488 83.09 92.76C83.562 93.032 83.922 93.4 84.17 93.864C84.426 94.32 84.554 94.828 84.554 95.388ZM83.702 95.364C83.71 94.876 83.61 94.46 83.402 94.116C83.202 93.772 82.926 93.512 82.574 93.336C82.222 93.16 81.838 93.072 81.422 93.072C80.798 93.072 80.266 93.272 79.826 93.672C79.386 94.072 79.142 94.636 79.094 95.364H83.702ZM85.7069 95.712C85.7069 95.04 85.8389 94.452 86.1029 93.948C86.3749 93.436 86.7469 93.044 87.2189 92.772C87.6989 92.492 88.2389 92.352 88.8389 92.352C89.4629 92.352 89.9989 92.496 90.4469 92.784C90.9029 93.072 91.2309 93.44 91.4309 93.888V92.448H92.2709V99H91.4309V97.548C91.2229 97.996 90.8909 98.368 90.4349 98.664C89.9869 98.952 89.4509 99.096 88.8269 99.096C88.2349 99.096 87.6989 98.956 87.2189 98.676C86.7469 98.396 86.3749 98 86.1029 97.488C85.8389 96.976 85.7069 96.384 85.7069 95.712ZM91.4309 95.724C91.4309 95.196 91.3229 94.732 91.1069 94.332C90.8909 93.932 90.5949 93.624 90.2189 93.408C89.8509 93.192 89.4429 93.084 88.9949 93.084C88.5309 93.084 88.1149 93.188 87.7469 93.396C87.3789 93.604 87.0869 93.908 86.8709 94.308C86.6629 94.7 86.5589 95.168 86.5589 95.712C86.5589 96.248 86.6629 96.72 86.8709 97.128C87.0869 97.528 87.3789 97.836 87.7469 98.052C88.1149 98.26 88.5309 98.364 88.9949 98.364C89.4429 98.364 89.8509 98.256 90.2189 98.04C90.5949 97.824 90.8909 97.516 91.1069 97.116C91.3229 96.716 91.4309 96.252 91.4309 95.724ZM95.0285 93.612C95.2125 93.204 95.4925 92.888 95.8685 92.664C96.2525 92.44 96.7205 92.328 97.2725 92.328V93.204H97.0445C96.4365 93.204 95.9485 93.368 95.5805 93.696C95.2125 94.024 95.0285 94.572 95.0285 95.34V99H94.1885V92.448H95.0285V93.612ZM99.3762 90.12V99H98.5362V90.12H99.3762ZM106.678 92.448L102.79 102.084H101.914L103.186 98.964L100.498 92.448H101.422L103.654 98.04L105.814 92.448H106.678ZM110.726 95.712C110.726 95.04 110.862 94.452 111.134 93.948C111.406 93.436 111.778 93.044 112.25 92.772C112.73 92.492 113.27 92.352 113.87 92.352C114.446 92.352 114.966 92.492 115.43 92.772C115.894 93.052 116.234 93.416 116.45 93.864V90.12H117.29V99H116.45V97.536C116.25 97.992 115.922 98.368 115.466 98.664C115.01 98.952 114.474 99.096 113.858 99.096C113.258 99.096 112.718 98.956 112.238 98.676C111.766 98.396 111.394 98 111.122 97.488C110.858 96.976 110.726 96.384 110.726 95.712ZM116.45 95.724C116.45 95.196 116.342 94.732 116.126 94.332C115.91 93.932 115.614 93.624 115.238 93.408C114.87 93.192 114.462 93.084 114.014 93.084C113.55 93.084 113.134 93.188 112.766 93.396C112.398 93.604 112.106 93.908 111.89 94.308C111.682 94.7 111.578 95.168 111.578 95.712C111.578 96.248 111.682 96.72 111.89 97.128C112.106 97.528 112.398 97.836 112.766 98.052C113.134 98.26 113.55 98.364 114.014 98.364C114.462 98.364 114.87 98.256 115.238 98.04C115.614 97.824 115.91 97.516 116.126 97.116C116.342 96.716 116.45 96.252 116.45 95.724ZM120.048 93.612C120.232 93.204 120.512 92.888 120.888 92.664C121.272 92.44 121.74 92.328 122.292 92.328V93.204H122.064C121.456 93.204 120.968 93.368 120.6 93.696C120.232 94.024 120.048 94.572 120.048 95.34V99H119.208V92.448H120.048V93.612ZM123.172 95.712C123.172 95.04 123.304 94.452 123.568 93.948C123.84 93.436 124.212 93.044 124.684 92.772C125.164 92.492 125.704 92.352 126.304 92.352C126.928 92.352 127.464 92.496 127.912 92.784C128.368 93.072 128.696 93.44 128.896 93.888V92.448H129.736V99H128.896V97.548C128.688 97.996 128.356 98.368 127.9 98.664C127.452 98.952 126.916 99.096 126.292 99.096C125.7 99.096 125.164 98.956 124.684 98.676C124.212 98.396 123.84 98 123.568 97.488C123.304 96.976 123.172 96.384 123.172 95.712ZM128.896 95.724C128.896 95.196 128.788 94.732 128.572 94.332C128.356 93.932 128.06 93.624 127.684 93.408C127.316 93.192 126.908 93.084 126.46 93.084C125.996 93.084 125.58 93.188 125.212 93.396C124.844 93.604 124.552 93.908 124.336 94.308C124.128 94.7 124.024 95.168 124.024 95.712C124.024 96.248 124.128 96.72 124.336 97.128C124.552 97.528 124.844 97.836 125.212 98.052C125.58 98.26 125.996 98.364 126.46 98.364C126.908 98.364 127.316 98.256 127.684 98.04C128.06 97.824 128.356 97.516 128.572 97.116C128.788 96.716 128.896 96.252 128.896 95.724ZM134.233 93.156H132.709V99H131.869V93.156H130.957V92.448H131.869V91.992C131.869 91.28 132.049 90.756 132.409 90.42C132.777 90.084 133.369 89.916 134.185 89.916V90.636C133.641 90.636 133.257 90.74 133.033 90.948C132.817 91.156 132.709 91.504 132.709 91.992V92.448H134.233V93.156ZM136.648 93.156V97.224C136.648 97.624 136.724 97.9 136.876 98.052C137.028 98.204 137.296 98.28 137.68 98.28H138.448V99H137.548C136.956 99 136.516 98.864 136.228 98.592C135.94 98.312 135.796 97.856 135.796 97.224V93.156H134.884V92.448H135.796V90.804H136.648V92.448H138.448V93.156H136.648ZM142.089 99.096C141.337 99.096 140.721 98.924 140.241 98.58C139.769 98.228 139.505 97.752 139.449 97.152H140.313C140.353 97.52 140.525 97.82 140.829 98.052C141.141 98.276 141.557 98.388 142.077 98.388C142.533 98.388 142.889 98.28 143.145 98.064C143.409 97.848 143.541 97.58 143.541 97.26C143.541 97.036 143.469 96.852 143.325 96.708C143.181 96.564 142.997 96.452 142.773 96.372C142.557 96.284 142.261 96.192 141.885 96.096C141.397 95.968 141.001 95.84 140.697 95.712C140.393 95.584 140.133 95.396 139.917 95.148C139.709 94.892 139.605 94.552 139.605 94.128C139.605 93.808 139.701 93.512 139.893 93.24C140.085 92.968 140.357 92.752 140.709 92.592C141.061 92.432 141.461 92.352 141.909 92.352C142.613 92.352 143.181 92.532 143.613 92.892C144.045 93.244 144.277 93.732 144.309 94.356H143.469C143.445 93.972 143.293 93.664 143.013 93.432C142.741 93.192 142.365 93.072 141.885 93.072C141.461 93.072 141.117 93.172 140.853 93.372C140.589 93.572 140.457 93.82 140.457 94.116C140.457 94.372 140.533 94.584 140.685 94.752C140.845 94.912 141.041 95.04 141.273 95.136C141.505 95.224 141.817 95.324 142.209 95.436C142.681 95.564 143.057 95.688 143.337 95.808C143.617 95.928 143.857 96.104 144.057 96.336C144.257 96.568 144.361 96.876 144.369 97.26C144.369 97.612 144.273 97.928 144.081 98.208C143.889 98.48 143.621 98.696 143.277 98.856C142.933 99.016 142.537 99.096 142.089 99.096ZM152.111 99.096C151.495 99.096 150.939 98.96 150.443 98.688C149.955 98.408 149.567 98.016 149.279 97.512C148.999 97 148.859 96.404 148.859 95.724C148.859 95.044 149.003 94.452 149.291 93.948C149.579 93.436 149.971 93.044 150.467 92.772C150.963 92.492 151.519 92.352 152.135 92.352C152.751 92.352 153.307 92.492 153.803 92.772C154.307 93.044 154.699 93.436 154.979 93.948C155.267 94.452 155.411 95.044 155.411 95.724C155.411 96.396 155.267 96.988 154.979 97.5C154.691 98.012 154.295 98.408 153.791 98.688C153.287 98.96 152.727 99.096 152.111 99.096ZM152.111 98.364C152.543 98.364 152.943 98.268 153.311 98.076C153.679 97.876 153.975 97.58 154.199 97.188C154.431 96.788 154.547 96.3 154.547 95.724C154.547 95.148 154.435 94.664 154.211 94.272C153.987 93.872 153.691 93.576 153.323 93.384C152.955 93.184 152.555 93.084 152.123 93.084C151.691 93.084 151.291 93.184 150.923 93.384C150.555 93.576 150.259 93.872 150.035 94.272C149.819 94.664 149.711 95.148 149.711 95.724C149.711 96.3 149.819 96.788 150.035 97.188C150.259 97.58 150.551 97.876 150.911 98.076C151.279 98.268 151.679 98.364 152.111 98.364ZM159.522 93.156H157.998V99H157.158V93.156H156.246V92.448H157.158V91.992C157.158 91.28 157.338 90.756 157.698 90.42C158.066 90.084 158.658 89.916 159.474 89.916V90.636C158.93 90.636 158.546 90.74 158.322 90.948C158.106 91.156 157.998 91.504 157.998 91.992V92.448H159.522V93.156ZM166.394 99.096C165.642 99.096 165.026 98.924 164.546 98.58C164.074 98.228 163.81 97.752 163.754 97.152H164.618C164.658 97.52 164.83 97.82 165.134 98.052C165.446 98.276 165.862 98.388 166.382 98.388C166.838 98.388 167.194 98.28 167.45 98.064C167.714 97.848 167.846 97.58 167.846 97.26C167.846 97.036 167.774 96.852 167.63 96.708C167.486 96.564 167.302 96.452 167.078 96.372C166.862 96.284 166.566 96.192 166.19 96.096C165.702 95.968 165.306 95.84 165.002 95.712C164.698 95.584 164.438 95.396 164.222 95.148C164.014 94.892 163.91 94.552 163.91 94.128C163.91 93.808 164.006 93.512 164.198 93.24C164.39 92.968 164.662 92.752 165.014 92.592C165.366 92.432 165.766 92.352 166.214 92.352C166.918 92.352 167.486 92.532 167.918 92.892C168.35 93.244 168.582 93.732 168.614 94.356H167.774C167.75 93.972 167.598 93.664 167.318 93.432C167.046 93.192 166.67 93.072 166.19 93.072C165.766 93.072 165.422 93.172 165.158 93.372C164.894 93.572 164.762 93.82 164.762 94.116C164.762 94.372 164.838 94.584 164.99 94.752C165.15 94.912 165.346 95.04 165.578 95.136C165.81 95.224 166.122 95.324 166.514 95.436C166.986 95.564 167.362 95.688 167.642 95.808C167.922 95.928 168.162 96.104 168.362 96.336C168.562 96.568 168.666 96.876 168.674 97.26C168.674 97.612 168.578 97.928 168.386 98.208C168.194 98.48 167.926 98.696 167.582 98.856C167.238 99.016 166.842 99.096 166.394 99.096ZM169.871 95.724C169.871 95.044 170.007 94.452 170.279 93.948C170.551 93.436 170.927 93.044 171.407 92.772C171.887 92.492 172.435 92.352 173.051 92.352C173.859 92.352 174.523 92.552 175.043 92.952C175.571 93.352 175.911 93.896 176.063 94.584H175.163C175.051 94.112 174.807 93.744 174.431 93.48C174.063 93.208 173.603 93.072 173.051 93.072C172.611 93.072 172.215 93.172 171.863 93.372C171.511 93.572 171.231 93.872 171.023 94.272C170.823 94.664 170.723 95.148 170.723 95.724C170.723 96.3 170.823 96.788 171.023 97.188C171.231 97.588 171.511 97.888 171.863 98.088C172.215 98.288 172.611 98.388 173.051 98.388C173.603 98.388 174.063 98.256 174.431 97.992C174.807 97.72 175.051 97.344 175.163 96.864H176.063C175.911 97.536 175.571 98.076 175.043 98.484C174.515 98.892 173.851 99.096 173.051 99.096C172.435 99.096 171.887 98.96 171.407 98.688C170.927 98.408 170.551 98.016 170.279 97.512C170.007 97 169.871 96.404 169.871 95.724ZM178.454 93.612C178.638 93.204 178.918 92.888 179.294 92.664C179.678 92.44 180.146 92.328 180.698 92.328V93.204H180.47C179.862 93.204 179.374 93.368 179.006 93.696C178.638 94.024 178.454 94.572 178.454 95.34V99H177.614V92.448H178.454V93.612ZM182.382 91.212C182.214 91.212 182.07 91.152 181.95 91.032C181.83 90.912 181.77 90.764 181.77 90.588C181.77 90.412 181.83 90.268 181.95 90.156C182.07 90.036 182.214 89.976 182.382 89.976C182.55 89.976 182.694 90.036 182.814 90.156C182.934 90.268 182.994 90.412 182.994 90.588C182.994 90.764 182.934 90.912 182.814 91.032C182.694 91.152 182.55 91.212 182.382 91.212ZM182.802 92.448V99H181.962V92.448H182.802ZM185.532 93.888C185.74 93.448 186.068 93.084 186.516 92.796C186.972 92.5 187.512 92.352 188.136 92.352C188.728 92.352 189.26 92.492 189.732 92.772C190.212 93.044 190.584 93.436 190.848 93.948C191.12 94.452 191.256 95.04 191.256 95.712C191.256 96.384 191.12 96.976 190.848 97.488C190.584 98 190.212 98.396 189.732 98.676C189.26 98.956 188.728 99.096 188.136 99.096C187.52 99.096 186.984 98.952 186.528 98.664C186.072 98.368 185.74 98 185.532 97.56V102.096H184.704V92.448H185.532V93.888ZM190.404 95.712C190.404 95.168 190.296 94.7 190.08 94.308C189.872 93.908 189.584 93.604 189.216 93.396C188.848 93.188 188.432 93.084 187.968 93.084C187.52 93.084 187.108 93.192 186.732 93.408C186.364 93.624 186.072 93.932 185.856 94.332C185.64 94.732 185.532 95.196 185.532 95.724C185.532 96.252 185.64 96.716 185.856 97.116C186.072 97.516 186.364 97.824 186.732 98.04C187.108 98.256 187.52 98.364 187.968 98.364C188.432 98.364 188.848 98.26 189.216 98.052C189.584 97.836 189.872 97.528 190.08 97.128C190.296 96.72 190.404 96.248 190.404 95.712ZM193.894 93.156V97.224C193.894 97.624 193.97 97.9 194.122 98.052C194.274 98.204 194.542 98.28 194.926 98.28H195.694V99H194.794C194.202 99 193.762 98.864 193.474 98.592C193.186 98.312 193.042 97.856 193.042 97.224V93.156H192.13V92.448H193.042V90.804H193.894V92.448H195.694V93.156H193.894ZM199.335 99.096C198.583 99.096 197.967 98.924 197.487 98.58C197.015 98.228 196.751 97.752 196.695 97.152H197.559C197.599 97.52 197.771 97.82 198.075 98.052C198.387 98.276 198.803 98.388 199.323 98.388C199.779 98.388 200.135 98.28 200.391 98.064C200.655 97.848 200.787 97.58 200.787 97.26C200.787 97.036 200.715 96.852 200.571 96.708C200.427 96.564 200.243 96.452 200.019 96.372C199.803 96.284 199.507 96.192 199.131 96.096C198.643 95.968 198.247 95.84 197.943 95.712C197.639 95.584 197.379 95.396 197.163 95.148C196.955 94.892 196.851 94.552 196.851 94.128C196.851 93.808 196.947 93.512 197.139 93.24C197.331 92.968 197.603 92.752 197.955 92.592C198.307 92.432 198.707 92.352 199.155 92.352C199.859 92.352 200.427 92.532 200.859 92.892C201.291 93.244 201.523 93.732 201.555 94.356H200.715C200.691 93.972 200.539 93.664 200.259 93.432C199.987 93.192 199.611 93.072 199.131 93.072C198.707 93.072 198.363 93.172 198.099 93.372C197.835 93.572 197.703 93.82 197.703 94.116C197.703 94.372 197.779 94.584 197.931 94.752C198.091 94.912 198.287 95.04 198.519 95.136C198.751 95.224 199.063 95.324 199.455 95.436C199.927 95.564 200.303 95.688 200.583 95.808C200.863 95.928 201.103 96.104 201.303 96.336C201.503 96.568 201.607 96.876 201.615 97.26C201.615 97.612 201.519 97.928 201.327 98.208C201.135 98.48 200.867 98.696 200.523 98.856C200.179 99.016 199.783 99.096 199.335 99.096ZM203.34 99.06C203.164 99.06 203.016 99 202.896 98.88C202.784 98.76 202.728 98.612 202.728 98.436C202.728 98.26 202.784 98.116 202.896 98.004C203.016 97.884 203.164 97.824 203.34 97.824C203.508 97.824 203.648 97.884 203.76 98.004C203.88 98.116 203.94 98.26 203.94 98.436C203.94 98.612 203.88 98.76 203.76 98.88C203.648 99 203.508 99.06 203.34 99.06Z" fill="#1C1F33"/>
<path d="M72.6052 137.03V142.18C72.6052 142.753 72.4285 143.213 72.0752 143.56C71.7219 143.9 71.2552 144.07 70.6752 144.07C70.0885 144.07 69.6185 143.897 69.2652 143.55C68.9119 143.197 68.7352 142.717 68.7352 142.11H69.6452C69.6519 142.45 69.7385 142.727 69.9052 142.94C70.0785 143.153 70.3352 143.26 70.6752 143.26C71.0152 143.26 71.2685 143.16 71.4352 142.96C71.6019 142.753 71.6852 142.493 71.6852 142.18V137.03H72.6052ZM76.7879 144.09C76.2746 144.09 75.8079 143.973 75.3879 143.74C74.9746 143.507 74.6479 143.177 74.4079 142.75C74.1746 142.317 74.0579 141.817 74.0579 141.25C74.0579 140.69 74.1779 140.197 74.4179 139.77C74.6646 139.337 74.9979 139.007 75.4179 138.78C75.8379 138.547 76.3079 138.43 76.8279 138.43C77.3479 138.43 77.8179 138.547 78.2379 138.78C78.6579 139.007 78.9879 139.333 79.2279 139.76C79.4746 140.187 79.5979 140.683 79.5979 141.25C79.5979 141.817 79.4713 142.317 79.2179 142.75C78.9713 143.177 78.6346 143.507 78.2079 143.74C77.7813 143.973 77.3079 144.09 76.7879 144.09ZM76.7879 143.29C77.1146 143.29 77.4213 143.213 77.7079 143.06C77.9946 142.907 78.2246 142.677 78.3979 142.37C78.5779 142.063 78.6679 141.69 78.6679 141.25C78.6679 140.81 78.5813 140.437 78.4079 140.13C78.2346 139.823 78.0079 139.597 77.7279 139.45C77.4479 139.297 77.1446 139.22 76.8179 139.22C76.4846 139.22 76.1779 139.297 75.8979 139.45C75.6246 139.597 75.4046 139.823 75.2379 140.13C75.0713 140.437 74.9879 140.81 74.9879 141.25C74.9879 141.697 75.0679 142.073 75.2279 142.38C75.3946 142.687 75.6146 142.917 75.8879 143.07C76.1613 143.217 76.4613 143.29 76.7879 143.29ZM81.2644 137.63C81.0911 137.63 80.9444 137.57 80.8244 137.45C80.7044 137.33 80.6444 137.183 80.6444 137.01C80.6444 136.837 80.7044 136.69 80.8244 136.57C80.9444 136.45 81.0911 136.39 81.2644 136.39C81.4311 136.39 81.5711 136.45 81.6844 136.57C81.8044 136.69 81.8644 136.837 81.8644 137.01C81.8644 137.183 81.8044 137.33 81.6844 137.45C81.5711 137.57 81.4311 137.63 81.2644 137.63ZM81.7044 138.52V144H80.7944V138.52H81.7044ZM85.9254 138.42C86.592 138.42 87.132 138.623 87.5454 139.03C87.9587 139.43 88.1654 140.01 88.1654 140.77V144H87.2654V140.9C87.2654 140.353 87.1287 139.937 86.8554 139.65C86.582 139.357 86.2087 139.21 85.7354 139.21C85.2554 139.21 84.872 139.36 84.5854 139.66C84.3054 139.96 84.1654 140.397 84.1654 140.97V144H83.2554V138.52H84.1654V139.3C84.3454 139.02 84.5887 138.803 84.8954 138.65C85.2087 138.497 85.552 138.42 85.9254 138.42ZM94.5279 144.07C94.0679 144.07 93.6545 143.99 93.2879 143.83C92.9279 143.663 92.6445 143.437 92.4379 143.15C92.2312 142.857 92.1245 142.52 92.1179 142.14H93.0879C93.1212 142.467 93.2545 142.743 93.4879 142.97C93.7279 143.19 94.0745 143.3 94.5279 143.3C94.9612 143.3 95.3012 143.193 95.5479 142.98C95.8012 142.76 95.9279 142.48 95.9279 142.14C95.9279 141.873 95.8545 141.657 95.7079 141.49C95.5612 141.323 95.3779 141.197 95.1579 141.11C94.9379 141.023 94.6412 140.93 94.2679 140.83C93.8079 140.71 93.4379 140.59 93.1579 140.47C92.8845 140.35 92.6479 140.163 92.4479 139.91C92.2545 139.65 92.1579 139.303 92.1579 138.87C92.1579 138.49 92.2545 138.153 92.4479 137.86C92.6412 137.567 92.9112 137.34 93.2579 137.18C93.6112 137.02 94.0145 136.94 94.4679 136.94C95.1212 136.94 95.6545 137.103 96.0679 137.43C96.4879 137.757 96.7245 138.19 96.7779 138.73H95.7779C95.7445 138.463 95.6045 138.23 95.3579 138.03C95.1112 137.823 94.7845 137.72 94.3779 137.72C93.9979 137.72 93.6879 137.82 93.4479 138.02C93.2079 138.213 93.0879 138.487 93.0879 138.84C93.0879 139.093 93.1579 139.3 93.2979 139.46C93.4445 139.62 93.6212 139.743 93.8279 139.83C94.0412 139.91 94.3379 140.003 94.7179 140.11C95.1779 140.237 95.5479 140.363 95.8279 140.49C96.1079 140.61 96.3479 140.8 96.5479 141.06C96.7479 141.313 96.8479 141.66 96.8479 142.1C96.8479 142.44 96.7579 142.76 96.5779 143.06C96.3979 143.36 96.1312 143.603 95.7779 143.79C95.4245 143.977 95.0079 144.07 94.5279 144.07ZM97.847 141.24C97.847 140.68 97.9603 140.19 98.187 139.77C98.4137 139.343 98.7237 139.013 99.117 138.78C99.517 138.547 99.9637 138.43 100.457 138.43C100.93 138.43 101.344 138.537 101.697 138.75C102.057 138.957 102.32 139.213 102.487 139.52V138.52H103.407V146.6H102.487V142.99C102.314 143.297 102.047 143.557 101.687 143.77C101.327 143.983 100.907 144.09 100.427 144.09C99.947 144.09 99.5103 143.97 99.117 143.73C98.7237 143.49 98.4137 143.153 98.187 142.72C97.9603 142.287 97.847 141.793 97.847 141.24ZM102.487 141.25C102.487 140.837 102.404 140.477 102.237 140.17C102.07 139.863 101.844 139.63 101.557 139.47C101.277 139.303 100.967 139.22 100.627 139.22C100.287 139.22 99.977 139.3 99.697 139.46C99.417 139.62 99.1937 139.853 99.027 140.16C98.8603 140.467 98.777 140.827 98.777 141.24C98.777 141.66 98.8603 142.027 99.027 142.34C99.1937 142.647 99.417 142.883 99.697 143.05C99.977 143.21 100.287 143.29 100.627 143.29C100.967 143.29 101.277 143.21 101.557 143.05C101.844 142.883 102.07 142.647 102.237 142.34C102.404 142.027 102.487 141.663 102.487 141.25ZM109.805 138.52V144H108.895V143.19C108.721 143.47 108.478 143.69 108.165 143.85C107.858 144.003 107.518 144.08 107.145 144.08C106.718 144.08 106.335 143.993 105.995 143.82C105.655 143.64 105.385 143.373 105.185 143.02C104.991 142.667 104.895 142.237 104.895 141.73V138.52H105.795V141.61C105.795 142.15 105.931 142.567 106.205 142.86C106.478 143.147 106.851 143.29 107.325 143.29C107.811 143.29 108.195 143.14 108.475 142.84C108.755 142.54 108.895 142.103 108.895 141.53V138.52H109.805ZM111.001 141.24C111.001 140.68 111.115 140.19 111.341 139.77C111.568 139.343 111.878 139.013 112.271 138.78C112.671 138.547 113.115 138.43 113.601 138.43C114.081 138.43 114.498 138.533 114.851 138.74C115.205 138.947 115.468 139.207 115.641 139.52V138.52H116.561V144H115.641V142.98C115.461 143.3 115.191 143.567 114.831 143.78C114.478 143.987 114.065 144.09 113.591 144.09C113.105 144.09 112.665 143.97 112.271 143.73C111.878 143.49 111.568 143.153 111.341 142.72C111.115 142.287 111.001 141.793 111.001 141.24ZM115.641 141.25C115.641 140.837 115.558 140.477 115.391 140.17C115.225 139.863 114.998 139.63 114.711 139.47C114.431 139.303 114.121 139.22 113.781 139.22C113.441 139.22 113.131 139.3 112.851 139.46C112.571 139.62 112.348 139.853 112.181 140.16C112.015 140.467 111.931 140.827 111.931 141.24C111.931 141.66 112.015 142.027 112.181 142.34C112.348 142.647 112.571 142.883 112.851 143.05C113.131 143.21 113.441 143.29 113.781 143.29C114.121 143.29 114.431 143.21 114.711 143.05C114.998 142.883 115.225 142.647 115.391 142.34C115.558 142.027 115.641 141.663 115.641 141.25ZM117.759 141.24C117.759 140.68 117.872 140.19 118.099 139.77C118.326 139.343 118.636 139.013 119.029 138.78C119.429 138.547 119.876 138.43 120.369 138.43C120.796 138.43 121.192 138.53 121.559 138.73C121.926 138.923 122.206 139.18 122.399 139.5V136.6H123.319V144H122.399V142.97C122.219 143.297 121.952 143.567 121.599 143.78C121.246 143.987 120.832 144.09 120.359 144.09C119.872 144.09 119.429 143.97 119.029 143.73C118.636 143.49 118.326 143.153 118.099 142.72C117.872 142.287 117.759 141.793 117.759 141.24ZM122.399 141.25C122.399 140.837 122.316 140.477 122.149 140.17C121.982 139.863 121.756 139.63 121.469 139.47C121.189 139.303 120.879 139.22 120.539 139.22C120.199 139.22 119.889 139.3 119.609 139.46C119.329 139.62 119.106 139.853 118.939 140.16C118.772 140.467 118.689 140.827 118.689 141.24C118.689 141.66 118.772 142.027 118.939 142.34C119.106 142.647 119.329 142.883 119.609 143.05C119.889 143.21 120.199 143.29 120.539 143.29C120.879 143.29 121.189 143.21 121.469 143.05C121.756 142.883 121.982 142.647 122.149 142.34C122.316 142.027 122.399 141.663 122.399 141.25ZM127.183 141.24C127.183 140.68 127.296 140.19 127.523 139.77C127.75 139.343 128.06 139.013 128.453 138.78C128.853 138.547 129.296 138.43 129.783 138.43C130.263 138.43 130.68 138.533 131.033 138.74C131.386 138.947 131.65 139.207 131.823 139.52V138.52H132.743V144H131.823V142.98C131.643 143.3 131.373 143.567 131.013 143.78C130.66 143.987 130.246 144.09 129.773 144.09C129.286 144.09 128.846 143.97 128.453 143.73C128.06 143.49 127.75 143.153 127.523 142.72C127.296 142.287 127.183 141.793 127.183 141.24ZM131.823 141.25C131.823 140.837 131.74 140.477 131.573 140.17C131.406 139.863 131.18 139.63 130.893 139.47C130.613 139.303 130.303 139.22 129.963 139.22C129.623 139.22 129.313 139.3 129.033 139.46C128.753 139.62 128.53 139.853 128.363 140.16C128.196 140.467 128.113 140.827 128.113 141.24C128.113 141.66 128.196 142.027 128.363 142.34C128.53 142.647 128.753 142.883 129.033 143.05C129.313 143.21 129.623 143.29 129.963 143.29C130.303 143.29 130.613 143.21 130.893 143.05C131.18 142.883 131.406 142.647 131.573 142.34C131.74 142.027 131.823 141.663 131.823 141.25ZM135.391 139.27V142.5C135.391 142.767 135.447 142.957 135.561 143.07C135.674 143.177 135.871 143.23 136.151 143.23H136.821V144H136.001C135.494 144 135.114 143.883 134.861 143.65C134.607 143.417 134.481 143.033 134.481 142.5V139.27H133.771V138.52H134.481V137.14H135.391V138.52H136.821V139.27H135.391ZM145.611 136.888H143.559C143.816 137.024 144.009 137.191 144.137 137.389C144.269 137.587 144.355 137.812 144.395 138.066H145.611V138.83H144.384C144.311 139.23 144.126 139.576 143.829 139.869C143.536 140.163 143.145 140.374 142.657 140.502C142.815 140.586 142.951 140.709 143.064 140.87L145.363 144H144.412C144.221 144 144.08 143.925 143.988 143.774L141.942 140.958C141.88 140.87 141.812 140.808 141.739 140.771C141.669 140.731 141.559 140.711 141.409 140.711H140.485V139.974H141.519C142.036 139.974 142.448 139.869 142.756 139.66C143.068 139.451 143.27 139.175 143.361 138.83H140.474V138.066H143.383C143.314 137.699 143.127 137.416 142.822 137.218C142.518 137.017 142.098 136.916 141.563 136.916H140.485V136.118H145.611V136.888ZM150.194 141.156V137.906C150.194 137.811 150.197 137.706 150.205 137.592C150.212 137.479 150.223 137.363 150.238 137.246L147.367 141.156H150.194ZM152.245 141.156V141.717C152.245 141.776 152.227 141.826 152.19 141.866C152.157 141.906 152.104 141.926 152.031 141.926H151.052V144H150.194V141.926H146.696C146.622 141.926 146.558 141.906 146.503 141.866C146.452 141.822 146.419 141.769 146.404 141.706L146.305 141.206L150.139 136.118H151.052V141.156H152.245ZM158.61 140.062C158.61 140.751 158.534 141.349 158.384 141.855C158.237 142.357 158.036 142.773 157.779 143.103C157.522 143.433 157.218 143.679 156.866 143.84C156.518 144.002 156.144 144.083 155.744 144.083C155.341 144.083 154.965 144.002 154.617 143.84C154.272 143.679 153.971 143.433 153.715 143.103C153.458 142.773 153.256 142.357 153.11 141.855C152.963 141.349 152.89 140.751 152.89 140.062C152.89 139.373 152.963 138.775 153.11 138.269C153.256 137.763 153.458 137.345 153.715 137.015C153.971 136.681 154.272 136.434 154.617 136.272C154.965 136.111 155.341 136.03 155.744 136.03C156.144 136.03 156.518 136.111 156.866 136.272C157.218 136.434 157.522 136.681 157.779 137.015C158.036 137.345 158.237 137.763 158.384 138.269C158.534 138.775 158.61 139.373 158.61 140.062ZM157.592 140.062C157.592 139.461 157.541 138.956 157.438 138.549C157.339 138.139 157.203 137.809 157.031 137.559C156.862 137.31 156.666 137.132 156.443 137.026C156.219 136.916 155.986 136.861 155.744 136.861C155.502 136.861 155.269 136.916 155.046 137.026C154.822 137.132 154.626 137.31 154.457 137.559C154.288 137.809 154.153 138.139 154.05 138.549C153.951 138.956 153.902 139.461 153.902 140.062C153.902 140.663 153.951 141.167 154.05 141.574C154.153 141.981 154.288 142.31 154.457 142.559C154.626 142.808 154.822 142.988 155.046 143.098C155.269 143.204 155.502 143.257 155.744 143.257C155.986 143.257 156.219 143.204 156.443 143.098C156.666 142.988 156.862 142.808 157.031 142.559C157.203 142.31 157.339 141.981 157.438 141.574C157.541 141.167 157.592 140.663 157.592 140.062ZM159.56 140.31C159.56 139.163 159.747 138.27 160.12 137.63C160.494 136.983 161.147 136.66 162.08 136.66C163.007 136.66 163.657 136.983 164.03 137.63C164.404 138.27 164.59 139.163 164.59 140.31C164.59 141.477 164.404 142.383 164.03 143.03C163.657 143.677 163.007 144 162.08 144C161.147 144 160.494 143.677 160.12 143.03C159.747 142.383 159.56 141.477 159.56 140.31ZM163.69 140.31C163.69 139.73 163.65 139.24 163.57 138.84C163.497 138.433 163.34 138.107 163.1 137.86C162.867 137.613 162.527 137.49 162.08 137.49C161.627 137.49 161.28 137.613 161.04 137.86C160.807 138.107 160.65 138.433 160.57 138.84C160.497 139.24 160.46 139.73 160.46 140.31C160.46 140.91 160.497 141.413 160.57 141.82C160.65 142.227 160.807 142.553 161.04 142.8C161.28 143.047 161.627 143.17 162.08 143.17C162.527 143.17 162.867 143.047 163.1 142.8C163.34 142.553 163.497 142.227 163.57 141.82C163.65 141.413 163.69 140.91 163.69 140.31ZM169.39 134.58L166.65 145.7H165.75L168.48 134.58H169.39ZM177.336 138.42C177.762 138.42 178.142 138.51 178.476 138.69C178.809 138.863 179.072 139.127 179.266 139.48C179.459 139.833 179.556 140.263 179.556 140.77V144H178.656V140.9C178.656 140.353 178.519 139.937 178.246 139.65C177.979 139.357 177.616 139.21 177.156 139.21C176.682 139.21 176.306 139.363 176.026 139.67C175.746 139.97 175.606 140.407 175.606 140.98V144H174.706V140.9C174.706 140.353 174.569 139.937 174.296 139.65C174.029 139.357 173.666 139.21 173.206 139.21C172.732 139.21 172.356 139.363 172.076 139.67C171.796 139.97 171.656 140.407 171.656 140.98V144H170.746V138.52H171.656V139.31C171.836 139.023 172.076 138.803 172.376 138.65C172.682 138.497 173.019 138.42 173.386 138.42C173.846 138.42 174.252 138.523 174.606 138.73C174.959 138.937 175.222 139.24 175.396 139.64C175.549 139.253 175.802 138.953 176.156 138.74C176.509 138.527 176.902 138.42 177.336 138.42ZM183.438 144.09C182.925 144.09 182.458 143.973 182.038 143.74C181.625 143.507 181.298 143.177 181.058 142.75C180.825 142.317 180.708 141.817 180.708 141.25C180.708 140.69 180.828 140.197 181.068 139.77C181.315 139.337 181.648 139.007 182.068 138.78C182.488 138.547 182.958 138.43 183.478 138.43C183.998 138.43 184.468 138.547 184.888 138.78C185.308 139.007 185.638 139.333 185.878 139.76C186.125 140.187 186.248 140.683 186.248 141.25C186.248 141.817 186.122 142.317 185.868 142.75C185.622 143.177 185.285 143.507 184.858 143.74C184.432 143.973 183.958 144.09 183.438 144.09ZM183.438 143.29C183.765 143.29 184.072 143.213 184.358 143.06C184.645 142.907 184.875 142.677 185.048 142.37C185.228 142.063 185.318 141.69 185.318 141.25C185.318 140.81 185.232 140.437 185.058 140.13C184.885 139.823 184.658 139.597 184.378 139.45C184.098 139.297 183.795 139.22 183.468 139.22C183.135 139.22 182.828 139.297 182.548 139.45C182.275 139.597 182.055 139.823 181.888 140.13C181.722 140.437 181.638 140.81 181.638 141.25C181.638 141.697 181.718 142.073 181.878 142.38C182.045 142.687 182.265 142.917 182.538 143.07C182.812 143.217 183.112 143.29 183.438 143.29Z" fill="#F9F9FA"/>
</g>
<defs>
<filter id="filter0_f_890_523" x="29.7276" y="0.679932" width="195.884" height="172.96" filterUnits="userSpaceOnUse" color-interpolation-filters="sRGB">
<feFlood flood-opacity="0" result="BackgroundImageFix"/>
<feBlend mode="normal" in="SourceGraphic" in2="BackgroundImageFix" result="shape"/>
<feGaussianBlur stdDeviation="10" result="effect1_foregroundBlur_890_523"/>
</filter>
</defs>
</svg>
