<svg width="253" height="274" viewBox="0 0 253 274" fill="none" xmlns="http://www.w3.org/2000/svg">
<rect width="253" height="274" rx="20" fill="#F6F6F7"/>
<rect x="43" y="206" width="165" height="38" rx="19" fill="#5496D1"/>
<path d="M96.3797 227.14H92.7317L92.0597 229H90.9077L93.9317 220.684H95.1917L98.2037 229H97.0517L96.3797 227.14ZM96.0677 226.252L94.5557 222.028L93.0437 226.252H96.0677ZM99.1137 225.688C99.1137 225.016 99.2497 224.428 99.5217 223.924C99.7937 223.412 100.166 223.016 100.638 222.736C101.118 222.456 101.654 222.316 102.246 222.316C102.758 222.316 103.234 222.436 103.674 222.676C104.114 222.908 104.45 223.216 104.682 223.6V220.12H105.786V229H104.682V227.764C104.466 228.156 104.146 228.48 103.722 228.736C103.298 228.984 102.802 229.108 102.234 229.108C101.65 229.108 101.118 228.964 100.638 228.676C100.166 228.388 99.7937 227.984 99.5217 227.464C99.2497 226.944 99.1137 226.352 99.1137 225.688ZM104.682 225.7C104.682 225.204 104.582 224.772 104.382 224.404C104.182 224.036 103.91 223.756 103.566 223.564C103.23 223.364 102.858 223.264 102.45 223.264C102.042 223.264 101.67 223.36 101.334 223.552C100.998 223.744 100.73 224.024 100.53 224.392C100.33 224.76 100.23 225.192 100.23 225.688C100.23 226.192 100.33 226.632 100.53 227.008C100.73 227.376 100.998 227.66 101.334 227.86C101.67 228.052 102.042 228.148 102.45 228.148C102.858 228.148 103.23 228.052 103.566 227.86C103.91 227.66 104.182 227.376 104.382 227.008C104.582 226.632 104.682 226.196 104.682 225.7ZM107.223 225.688C107.223 225.016 107.359 224.428 107.631 223.924C107.903 223.412 108.275 223.016 108.747 222.736C109.227 222.456 109.763 222.316 110.355 222.316C110.867 222.316 111.343 222.436 111.783 222.676C112.223 222.908 112.559 223.216 112.791 223.6V220.12H113.895V229H112.791V227.764C112.575 228.156 112.255 228.48 111.831 228.736C111.407 228.984 110.911 229.108 110.343 229.108C109.759 229.108 109.227 228.964 108.747 228.676C108.275 228.388 107.903 227.984 107.631 227.464C107.359 226.944 107.223 226.352 107.223 225.688ZM112.791 225.7C112.791 225.204 112.691 224.772 112.491 224.404C112.291 224.036 112.019 223.756 111.675 223.564C111.339 223.364 110.967 223.264 110.559 223.264C110.151 223.264 109.779 223.36 109.443 223.552C109.107 223.744 108.839 224.024 108.639 224.392C108.439 224.76 108.339 225.192 108.339 225.688C108.339 226.192 108.439 226.632 108.639 227.008C108.839 227.376 109.107 227.66 109.443 227.86C109.779 228.052 110.151 228.148 110.559 228.148C110.967 228.148 111.339 228.052 111.675 227.86C112.019 227.66 112.291 227.376 112.491 227.008C112.691 226.632 112.791 226.196 112.791 225.7ZM120.272 223.324V227.2C120.272 227.52 120.34 227.748 120.476 227.884C120.612 228.012 120.848 228.076 121.184 228.076H121.988V229H121.004C120.396 229 119.94 228.86 119.636 228.58C119.332 228.3 119.18 227.84 119.18 227.2V223.324H118.328V222.424H119.18V220.768H120.272V222.424H121.988V223.324H120.272ZM126.179 229.108C125.563 229.108 125.003 228.968 124.499 228.688C124.003 228.408 123.611 228.012 123.323 227.5C123.043 226.98 122.903 226.38 122.903 225.7C122.903 225.028 123.047 224.436 123.335 223.924C123.631 223.404 124.031 223.008 124.535 222.736C125.039 222.456 125.603 222.316 126.227 222.316C126.851 222.316 127.415 222.456 127.919 222.736C128.423 223.008 128.819 223.4 129.107 223.912C129.403 224.424 129.551 225.02 129.551 225.7C129.551 226.38 129.399 226.98 129.095 227.5C128.799 228.012 128.395 228.408 127.883 228.688C127.371 228.968 126.803 229.108 126.179 229.108ZM126.179 228.148C126.571 228.148 126.939 228.056 127.283 227.872C127.627 227.688 127.903 227.412 128.111 227.044C128.327 226.676 128.435 226.228 128.435 225.7C128.435 225.172 128.331 224.724 128.123 224.356C127.915 223.988 127.643 223.716 127.307 223.54C126.971 223.356 126.607 223.264 126.215 223.264C125.815 223.264 125.447 223.356 125.111 223.54C124.783 223.716 124.519 223.988 124.319 224.356C124.119 224.724 124.019 225.172 124.019 225.7C124.019 226.236 124.115 226.688 124.307 227.056C124.507 227.424 124.771 227.7 125.099 227.884C125.427 228.06 125.787 228.148 126.179 228.148ZM133.778 224.812C133.778 223.996 133.962 223.264 134.33 222.616C134.698 221.96 135.198 221.448 135.83 221.08C136.47 220.712 137.178 220.528 137.954 220.528C138.866 220.528 139.662 220.748 140.342 221.188C141.022 221.628 141.518 222.252 141.83 223.06H140.522C140.29 222.556 139.954 222.168 139.514 221.896C139.082 221.624 138.562 221.488 137.954 221.488C137.37 221.488 136.846 221.624 136.382 221.896C135.918 222.168 135.554 222.556 135.29 223.06C135.026 223.556 134.894 224.14 134.894 224.812C134.894 225.476 135.026 226.06 135.29 226.564C135.554 227.06 135.918 227.444 136.382 227.716C136.846 227.988 137.37 228.124 137.954 228.124C138.562 228.124 139.082 227.992 139.514 227.728C139.954 227.456 140.29 227.068 140.522 226.564H141.83C141.518 227.364 141.022 227.984 140.342 228.424C139.662 228.856 138.866 229.072 137.954 229.072C137.178 229.072 136.47 228.892 135.83 228.532C135.198 228.164 134.698 227.656 134.33 227.008C133.962 226.36 133.778 225.628 133.778 224.812ZM143.047 225.688C143.047 225.016 143.183 224.428 143.455 223.924C143.727 223.412 144.099 223.016 144.571 222.736C145.051 222.456 145.583 222.316 146.167 222.316C146.743 222.316 147.243 222.44 147.667 222.688C148.091 222.936 148.407 223.248 148.615 223.624V222.424H149.719V229H148.615V227.776C148.399 228.16 148.075 228.48 147.643 228.736C147.219 228.984 146.723 229.108 146.155 229.108C145.571 229.108 145.043 228.964 144.571 228.676C144.099 228.388 143.727 227.984 143.455 227.464C143.183 226.944 143.047 226.352 143.047 225.688ZM148.615 225.7C148.615 225.204 148.515 224.772 148.315 224.404C148.115 224.036 147.843 223.756 147.499 223.564C147.163 223.364 146.791 223.264 146.383 223.264C145.975 223.264 145.603 223.36 145.267 223.552C144.931 223.744 144.663 224.024 144.463 224.392C144.263 224.76 144.163 225.192 144.163 225.688C144.163 226.192 144.263 226.632 144.463 227.008C144.663 227.376 144.931 227.66 145.267 227.86C145.603 228.052 145.975 228.148 146.383 228.148C146.791 228.148 147.163 228.052 147.499 227.86C147.843 227.66 148.115 227.376 148.315 227.008C148.515 226.632 148.615 226.196 148.615 225.7ZM152.657 223.492C152.849 223.116 153.121 222.824 153.473 222.616C153.833 222.408 154.269 222.304 154.781 222.304V223.432H154.493C153.269 223.432 152.657 224.096 152.657 225.424V229H151.565V222.424H152.657V223.492ZM157.373 223.324V227.2C157.373 227.52 157.441 227.748 157.577 227.884C157.713 228.012 157.949 228.076 158.285 228.076H159.089V229H158.105C157.497 229 157.041 228.86 156.737 228.58C156.433 228.3 156.281 227.84 156.281 227.2V223.324H155.429V222.424H156.281V220.768H157.373V222.424H159.089V223.324H157.373Z" fill="white"/>
<path d="M149.471 67.2373C154.948 67.7067 168.895 69.6783 178.284 73.8094C190.02 78.9733 198 90.7093 198 103.854C198 114.369 198 126.7 198 131.551C196.906 134.012 191.701 139.055 180.631 141.791C178.909 146.828 166.735 157.37 131.809 159.248C88.151 161.595 72.19 153.145 65.6179 149.859C59.0457 146.573 59.5151 143.113 59.5151 141.791C59.5151 140.47 63.2707 136.714 67.4956 134.837C70.8756 133.334 84.9028 128.89 91.494 126.856C91.4374 118.804 90.8016 104.897 91.9065 98.6898C94.2464 85.5454 99.4102 79.9121 109.738 73.8094C118.127 68.8521 127.115 67.2373 138.57 67.2373M141.667 63.9512C140.003 63.9511 138.381 64.8901 138.381 66.2984C138.381 67.7067 139.32 68.1761 140.728 68.6456C142.247 69.1519 145.423 69.115 147.3 68.6456C148.741 68.2855 149.648 67.7067 149.648 66.2984C149.648 64.8901 147.076 63.9511 145.423 63.9512C144.014 63.9512 142.606 63.9512 141.667 63.9512Z" stroke="#B8B8BE" stroke-width="6" stroke-linecap="round"/>
<path d="M95.6547 133.428C108.33 140.939 147.293 143.756 171.235 138.123C171.235 129.777 170.209 116.341 169.834 108.079C169.364 97.7508 164.662 80.8509 152.926 76.1565" stroke="#DADADD" stroke-width="6" stroke-linecap="round"/>
<path d="M124.919 101.725L127.103 104.517L129.495 101.902C131.016 100.24 133.295 99.2409 135.562 99.3286C139.516 99.4814 142.524 102.703 142.365 106.824C142.267 109.354 141.07 111.844 138.417 114.887C135.727 117.971 131.869 121.265 126.922 125.473L126.917 125.476L126.271 126.028L125.669 125.428L125.665 125.424C121.057 120.847 117.465 117.265 115.022 113.983C112.611 110.744 111.61 108.169 111.707 105.639C111.867 101.517 115.115 98.5381 119.069 98.6909C121.336 98.7786 123.531 99.9508 124.919 101.725Z" stroke="#DADADD" stroke-width="6" stroke-miterlimit="4.7764"/>
</svg>
