<svg width="253" height="274" viewBox="0 0 253 274" fill="none" xmlns="http://www.w3.org/2000/svg">
<rect width="253" height="274" rx="20" fill="#F6F6F7"/>
<rect x="42.9999" y="206" width="165" height="38" rx="19" fill="#BB57A4"/>
<path d="M96.3797 227.14H92.7317L92.0597 229H90.9077L93.9317 220.684H95.1917L98.2037 229H97.0517L96.3797 227.14ZM96.0677 226.252L94.5557 222.028L93.0437 226.252H96.0677ZM99.1137 225.688C99.1137 225.016 99.2497 224.428 99.5217 223.924C99.7937 223.412 100.166 223.016 100.638 222.736C101.118 222.456 101.654 222.316 102.246 222.316C102.758 222.316 103.234 222.436 103.674 222.676C104.114 222.908 104.45 223.216 104.682 223.6V220.12H105.786V229H104.682V227.764C104.466 228.156 104.146 228.48 103.722 228.736C103.298 228.984 102.802 229.108 102.234 229.108C101.65 229.108 101.118 228.964 100.638 228.676C100.166 228.388 99.7937 227.984 99.5217 227.464C99.2497 226.944 99.1137 226.352 99.1137 225.688ZM104.682 225.7C104.682 225.204 104.582 224.772 104.382 224.404C104.182 224.036 103.91 223.756 103.566 223.564C103.23 223.364 102.858 223.264 102.45 223.264C102.042 223.264 101.67 223.36 101.334 223.552C100.998 223.744 100.73 224.024 100.53 224.392C100.33 224.76 100.23 225.192 100.23 225.688C100.23 226.192 100.33 226.632 100.53 227.008C100.73 227.376 100.998 227.66 101.334 227.86C101.67 228.052 102.042 228.148 102.45 228.148C102.858 228.148 103.23 228.052 103.566 227.86C103.91 227.66 104.182 227.376 104.382 227.008C104.582 226.632 104.682 226.196 104.682 225.7ZM107.223 225.688C107.223 225.016 107.359 224.428 107.631 223.924C107.903 223.412 108.275 223.016 108.747 222.736C109.227 222.456 109.763 222.316 110.355 222.316C110.867 222.316 111.343 222.436 111.783 222.676C112.223 222.908 112.559 223.216 112.791 223.6V220.12H113.895V229H112.791V227.764C112.575 228.156 112.255 228.48 111.831 228.736C111.407 228.984 110.911 229.108 110.343 229.108C109.759 229.108 109.227 228.964 108.747 228.676C108.275 228.388 107.903 227.984 107.631 227.464C107.359 226.944 107.223 226.352 107.223 225.688ZM112.791 225.7C112.791 225.204 112.691 224.772 112.491 224.404C112.291 224.036 112.019 223.756 111.675 223.564C111.339 223.364 110.967 223.264 110.559 223.264C110.151 223.264 109.779 223.36 109.443 223.552C109.107 223.744 108.839 224.024 108.639 224.392C108.439 224.76 108.339 225.192 108.339 225.688C108.339 226.192 108.439 226.632 108.639 227.008C108.839 227.376 109.107 227.66 109.443 227.86C109.779 228.052 110.151 228.148 110.559 228.148C110.967 228.148 111.339 228.052 111.675 227.86C112.019 227.66 112.291 227.376 112.491 227.008C112.691 226.632 112.791 226.196 112.791 225.7ZM120.272 223.324V227.2C120.272 227.52 120.34 227.748 120.476 227.884C120.612 228.012 120.848 228.076 121.184 228.076H121.988V229H121.004C120.396 229 119.94 228.86 119.636 228.58C119.332 228.3 119.18 227.84 119.18 227.2V223.324H118.328V222.424H119.18V220.768H120.272V222.424H121.988V223.324H120.272ZM126.179 229.108C125.563 229.108 125.003 228.968 124.499 228.688C124.003 228.408 123.611 228.012 123.323 227.5C123.043 226.98 122.903 226.38 122.903 225.7C122.903 225.028 123.047 224.436 123.335 223.924C123.631 223.404 124.031 223.008 124.535 222.736C125.039 222.456 125.603 222.316 126.227 222.316C126.851 222.316 127.415 222.456 127.919 222.736C128.423 223.008 128.819 223.4 129.107 223.912C129.403 224.424 129.551 225.02 129.551 225.7C129.551 226.38 129.399 226.98 129.095 227.5C128.799 228.012 128.395 228.408 127.883 228.688C127.371 228.968 126.803 229.108 126.179 229.108ZM126.179 228.148C126.571 228.148 126.939 228.056 127.283 227.872C127.627 227.688 127.903 227.412 128.111 227.044C128.327 226.676 128.435 226.228 128.435 225.7C128.435 225.172 128.331 224.724 128.123 224.356C127.915 223.988 127.643 223.716 127.307 223.54C126.971 223.356 126.607 223.264 126.215 223.264C125.815 223.264 125.447 223.356 125.111 223.54C124.783 223.716 124.519 223.988 124.319 224.356C124.119 224.724 124.019 225.172 124.019 225.7C124.019 226.236 124.115 226.688 124.307 227.056C124.507 227.424 124.771 227.7 125.099 227.884C125.427 228.06 125.787 228.148 126.179 228.148ZM133.778 224.812C133.778 223.996 133.962 223.264 134.33 222.616C134.698 221.96 135.198 221.448 135.83 221.08C136.47 220.712 137.178 220.528 137.954 220.528C138.866 220.528 139.662 220.748 140.342 221.188C141.022 221.628 141.518 222.252 141.83 223.06H140.522C140.29 222.556 139.954 222.168 139.514 221.896C139.082 221.624 138.562 221.488 137.954 221.488C137.37 221.488 136.846 221.624 136.382 221.896C135.918 222.168 135.554 222.556 135.29 223.06C135.026 223.556 134.894 224.14 134.894 224.812C134.894 225.476 135.026 226.06 135.29 226.564C135.554 227.06 135.918 227.444 136.382 227.716C136.846 227.988 137.37 228.124 137.954 228.124C138.562 228.124 139.082 227.992 139.514 227.728C139.954 227.456 140.29 227.068 140.522 226.564H141.83C141.518 227.364 141.022 227.984 140.342 228.424C139.662 228.856 138.866 229.072 137.954 229.072C137.178 229.072 136.47 228.892 135.83 228.532C135.198 228.164 134.698 227.656 134.33 227.008C133.962 226.36 133.778 225.628 133.778 224.812ZM143.047 225.688C143.047 225.016 143.183 224.428 143.455 223.924C143.727 223.412 144.099 223.016 144.571 222.736C145.051 222.456 145.583 222.316 146.167 222.316C146.743 222.316 147.243 222.44 147.667 222.688C148.091 222.936 148.407 223.248 148.615 223.624V222.424H149.719V229H148.615V227.776C148.399 228.16 148.075 228.48 147.643 228.736C147.219 228.984 146.723 229.108 146.155 229.108C145.571 229.108 145.043 228.964 144.571 228.676C144.099 228.388 143.727 227.984 143.455 227.464C143.183 226.944 143.047 226.352 143.047 225.688ZM148.615 225.7C148.615 225.204 148.515 224.772 148.315 224.404C148.115 224.036 147.843 223.756 147.499 223.564C147.163 223.364 146.791 223.264 146.383 223.264C145.975 223.264 145.603 223.36 145.267 223.552C144.931 223.744 144.663 224.024 144.463 224.392C144.263 224.76 144.163 225.192 144.163 225.688C144.163 226.192 144.263 226.632 144.463 227.008C144.663 227.376 144.931 227.66 145.267 227.86C145.603 228.052 145.975 228.148 146.383 228.148C146.791 228.148 147.163 228.052 147.499 227.86C147.843 227.66 148.115 227.376 148.315 227.008C148.515 226.632 148.615 226.196 148.615 225.7ZM152.657 223.492C152.849 223.116 153.121 222.824 153.473 222.616C153.833 222.408 154.269 222.304 154.781 222.304V223.432H154.493C153.269 223.432 152.657 224.096 152.657 225.424V229H151.565V222.424H152.657V223.492ZM157.373 223.324V227.2C157.373 227.52 157.441 227.748 157.577 227.884C157.713 228.012 157.949 228.076 158.285 228.076H159.089V229H158.105C157.497 229 157.041 228.86 156.737 228.58C156.433 228.3 156.281 227.84 156.281 227.2V223.324H155.429V222.424H156.281V220.768H157.373V222.424H159.089V223.324H157.373Z" fill="white"/>
<path d="M89.6894 78.682V67.3904C90.4679 68.1217 90.9653 68.8334 95.0293 69.8451C99.9596 70.6633 113.962 72.2998 130.528 72.2998C147.291 72.2998 163.561 70.827 166.519 69.3541C167.865 68.6841 169.16 68.0142 168.984 67.3904V154.778C167.998 156.905 158.729 161.258 129.542 161.651C100.354 162.044 90.812 157.232 89.6894 154.778V140.049M89.6894 78.682C87.1965 78.5184 80.9287 78.682 75.8012 80.6458C69.3918 83.1005 60.5172 88.5008 60.0242 103.72C59.5311 118.939 65.1488 127.343 70.3778 132.194C74.7195 136.223 81.8844 140.54 89.6894 140.049M89.6894 78.682C90.7589 79.1729 92.0712 80.6458 92.0712 83.5914C92.0712 85.9479 90.4834 87.5189 89.6894 88.0099M89.6894 140.049C92.7781 137.693 91.5782 133.831 90.5921 132.194C90.3154 132.231 90.0138 132.266 89.6894 132.294M89.6894 88.0099C85.7174 87.5189 77.7105 87.2947 74.1607 90.4367C69.7234 94.3642 66.7375 99.5618 67.7236 108.89C68.7097 118.217 73.5217 126.113 78.452 129.059C82.8289 131.674 87.1245 132.519 89.6894 132.294M89.6894 88.0099V132.294" stroke="#B8B8BE" stroke-width="6" stroke-linejoin="round"/>
<path d="M164.28 64.6889C160.417 63.4015 150.976 60.8267 129.519 60.8267C108.063 60.8267 100.338 62.5432 94.3301 64.2598" stroke="#DADADD" stroke-width="5" stroke-linecap="round"/>
<path d="M127.659 103.133L129.949 105.838L132.238 103.133C133.706 101.399 135.964 100.303 138.252 100.303C142.244 100.303 145.401 103.433 145.401 107.593C145.401 110.147 144.292 112.701 141.741 115.865C139.156 119.071 135.404 122.534 130.594 126.956L130.589 126.96L129.949 127.552L129.308 126.96L129.303 126.956C124.493 122.534 120.741 119.071 118.156 115.865C115.605 112.701 114.496 110.147 114.496 107.593C114.496 103.433 117.653 100.303 121.645 100.303C123.933 100.303 126.191 101.399 127.659 103.133Z" stroke="#DADADD" stroke-width="6" stroke-miterlimit="4.7764"/>
</svg>
