<svg width="253" height="274" viewBox="0 0 253 274" fill="none" xmlns="http://www.w3.org/2000/svg">
<rect width="253" height="274" rx="20" fill="#F6F6F7"/>
<rect x="45" y="206" width="165" height="38" rx="19" fill="#FF3D77"/>
<path d="M98.3797 227.14H94.7317L94.0597 229H92.9077L95.9317 220.684H97.1917L100.204 229H99.0517L98.3797 227.14ZM98.0677 226.252L96.5557 222.028L95.0437 226.252H98.0677ZM101.114 225.688C101.114 225.016 101.25 224.428 101.522 223.924C101.794 223.412 102.166 223.016 102.638 222.736C103.118 222.456 103.654 222.316 104.246 222.316C104.758 222.316 105.234 222.436 105.674 222.676C106.114 222.908 106.45 223.216 106.682 223.6V220.12H107.786V229H106.682V227.764C106.466 228.156 106.146 228.48 105.722 228.736C105.298 228.984 104.802 229.108 104.234 229.108C103.65 229.108 103.118 228.964 102.638 228.676C102.166 228.388 101.794 227.984 101.522 227.464C101.25 226.944 101.114 226.352 101.114 225.688ZM106.682 225.7C106.682 225.204 106.582 224.772 106.382 224.404C106.182 224.036 105.91 223.756 105.566 223.564C105.23 223.364 104.858 223.264 104.45 223.264C104.042 223.264 103.67 223.36 103.334 223.552C102.998 223.744 102.73 224.024 102.53 224.392C102.33 224.76 102.23 225.192 102.23 225.688C102.23 226.192 102.33 226.632 102.53 227.008C102.73 227.376 102.998 227.66 103.334 227.86C103.67 228.052 104.042 228.148 104.45 228.148C104.858 228.148 105.23 228.052 105.566 227.86C105.91 227.66 106.182 227.376 106.382 227.008C106.582 226.632 106.682 226.196 106.682 225.7ZM109.223 225.688C109.223 225.016 109.359 224.428 109.631 223.924C109.903 223.412 110.275 223.016 110.747 222.736C111.227 222.456 111.763 222.316 112.355 222.316C112.867 222.316 113.343 222.436 113.783 222.676C114.223 222.908 114.559 223.216 114.791 223.6V220.12H115.895V229H114.791V227.764C114.575 228.156 114.255 228.48 113.831 228.736C113.407 228.984 112.911 229.108 112.343 229.108C111.759 229.108 111.227 228.964 110.747 228.676C110.275 228.388 109.903 227.984 109.631 227.464C109.359 226.944 109.223 226.352 109.223 225.688ZM114.791 225.7C114.791 225.204 114.691 224.772 114.491 224.404C114.291 224.036 114.019 223.756 113.675 223.564C113.339 223.364 112.967 223.264 112.559 223.264C112.151 223.264 111.779 223.36 111.443 223.552C111.107 223.744 110.839 224.024 110.639 224.392C110.439 224.76 110.339 225.192 110.339 225.688C110.339 226.192 110.439 226.632 110.639 227.008C110.839 227.376 111.107 227.66 111.443 227.86C111.779 228.052 112.151 228.148 112.559 228.148C112.967 228.148 113.339 228.052 113.675 227.86C114.019 227.66 114.291 227.376 114.491 227.008C114.691 226.632 114.791 226.196 114.791 225.7ZM122.272 223.324V227.2C122.272 227.52 122.34 227.748 122.476 227.884C122.612 228.012 122.848 228.076 123.184 228.076H123.988V229H123.004C122.396 229 121.94 228.86 121.636 228.58C121.332 228.3 121.18 227.84 121.18 227.2V223.324H120.328V222.424H121.18V220.768H122.272V222.424H123.988V223.324H122.272ZM128.179 229.108C127.563 229.108 127.003 228.968 126.499 228.688C126.003 228.408 125.611 228.012 125.323 227.5C125.043 226.98 124.903 226.38 124.903 225.7C124.903 225.028 125.047 224.436 125.335 223.924C125.631 223.404 126.031 223.008 126.535 222.736C127.039 222.456 127.603 222.316 128.227 222.316C128.851 222.316 129.415 222.456 129.919 222.736C130.423 223.008 130.819 223.4 131.107 223.912C131.403 224.424 131.551 225.02 131.551 225.7C131.551 226.38 131.399 226.98 131.095 227.5C130.799 228.012 130.395 228.408 129.883 228.688C129.371 228.968 128.803 229.108 128.179 229.108ZM128.179 228.148C128.571 228.148 128.939 228.056 129.283 227.872C129.627 227.688 129.903 227.412 130.111 227.044C130.327 226.676 130.435 226.228 130.435 225.7C130.435 225.172 130.331 224.724 130.123 224.356C129.915 223.988 129.643 223.716 129.307 223.54C128.971 223.356 128.607 223.264 128.215 223.264C127.815 223.264 127.447 223.356 127.111 223.54C126.783 223.716 126.519 223.988 126.319 224.356C126.119 224.724 126.019 225.172 126.019 225.7C126.019 226.236 126.115 226.688 126.307 227.056C126.507 227.424 126.771 227.7 127.099 227.884C127.427 228.06 127.787 228.148 128.179 228.148ZM135.778 224.812C135.778 223.996 135.962 223.264 136.33 222.616C136.698 221.96 137.198 221.448 137.83 221.08C138.47 220.712 139.178 220.528 139.954 220.528C140.866 220.528 141.662 220.748 142.342 221.188C143.022 221.628 143.518 222.252 143.83 223.06H142.522C142.29 222.556 141.954 222.168 141.514 221.896C141.082 221.624 140.562 221.488 139.954 221.488C139.37 221.488 138.846 221.624 138.382 221.896C137.918 222.168 137.554 222.556 137.29 223.06C137.026 223.556 136.894 224.14 136.894 224.812C136.894 225.476 137.026 226.06 137.29 226.564C137.554 227.06 137.918 227.444 138.382 227.716C138.846 227.988 139.37 228.124 139.954 228.124C140.562 228.124 141.082 227.992 141.514 227.728C141.954 227.456 142.29 227.068 142.522 226.564H143.83C143.518 227.364 143.022 227.984 142.342 228.424C141.662 228.856 140.866 229.072 139.954 229.072C139.178 229.072 138.47 228.892 137.83 228.532C137.198 228.164 136.698 227.656 136.33 227.008C135.962 226.36 135.778 225.628 135.778 224.812ZM145.047 225.688C145.047 225.016 145.183 224.428 145.455 223.924C145.727 223.412 146.099 223.016 146.571 222.736C147.051 222.456 147.583 222.316 148.167 222.316C148.743 222.316 149.243 222.44 149.667 222.688C150.091 222.936 150.407 223.248 150.615 223.624V222.424H151.719V229H150.615V227.776C150.399 228.16 150.075 228.48 149.643 228.736C149.219 228.984 148.723 229.108 148.155 229.108C147.571 229.108 147.043 228.964 146.571 228.676C146.099 228.388 145.727 227.984 145.455 227.464C145.183 226.944 145.047 226.352 145.047 225.688ZM150.615 225.7C150.615 225.204 150.515 224.772 150.315 224.404C150.115 224.036 149.843 223.756 149.499 223.564C149.163 223.364 148.791 223.264 148.383 223.264C147.975 223.264 147.603 223.36 147.267 223.552C146.931 223.744 146.663 224.024 146.463 224.392C146.263 224.76 146.163 225.192 146.163 225.688C146.163 226.192 146.263 226.632 146.463 227.008C146.663 227.376 146.931 227.66 147.267 227.86C147.603 228.052 147.975 228.148 148.383 228.148C148.791 228.148 149.163 228.052 149.499 227.86C149.843 227.66 150.115 227.376 150.315 227.008C150.515 226.632 150.615 226.196 150.615 225.7ZM154.657 223.492C154.849 223.116 155.121 222.824 155.473 222.616C155.833 222.408 156.269 222.304 156.781 222.304V223.432H156.493C155.269 223.432 154.657 224.096 154.657 225.424V229H153.565V222.424H154.657V223.492ZM159.373 223.324V227.2C159.373 227.52 159.441 227.748 159.577 227.884C159.713 228.012 159.949 228.076 160.285 228.076H161.089V229H160.105C159.497 229 159.041 228.86 158.737 228.58C158.433 228.3 158.281 227.84 158.281 227.2V223.324H157.429V222.424H158.281V220.768H159.373V222.424H161.089V223.324H159.373Z" fill="white"/>
<path d="M57 94.9083L87.1896 72.8467C89 71 92.2986 70.9889 94.1564 72.8467C94.8384 73.5287 96.2715 74.5112 98.2204 75.4999M173.694 156.449L160.922 97.8113C164.212 98.1983 170.142 99 172 99C174.322 99 176.597 97.2307 177.178 94.9085C177.758 92.5862 179.5 75.3223 179.5 73C179.5 70.6777 177.903 68.5806 175 68C172.678 67.5355 154.342 63.7512 144.666 61.816C140.5 60.9829 138.5 61.816 137.118 63.5577C136.476 64.3683 135.651 66.2418 133.994 68.2022M98.2204 75.4999C102.908 77.878 110.578 80.2928 117.96 78.6525C124.952 77.0987 130.644 72.1661 133.994 68.2022M98.2204 75.4999L113.896 62.3966M113.896 62.3966L133.994 68.2022M113.896 62.3966C113.702 61.2355 113.199 58.3326 112.735 56.0104C112.154 53.1075 114.476 52.5269 116.218 50.2047C117.089 49.0434 119.469 46.489 118.54 40.9156C117.379 33.9487 111.5 32.207 107.509 32.207C103 32.207 93.5 37 98.2204 49.0434" stroke="#B8B8BE" stroke-width="6" stroke-linecap="round"/>
<path d="M121.516 102.754L124.282 104.968L126.01 101.874C127.116 99.8919 129.119 98.3839 131.363 97.9444C135.276 97.1779 138.973 99.6404 139.772 103.718C140.262 106.222 139.665 108.939 137.771 112.531C135.852 116.172 132.837 120.289 128.969 125.549L128.966 125.554L128.452 126.256L127.711 125.8L127.706 125.797C122.14 122.384 117.795 119.709 114.644 117.061C111.535 114.449 109.957 112.158 109.466 109.654C108.667 105.576 111.162 101.901 115.076 101.134C117.319 100.695 119.743 101.336 121.516 102.754Z" stroke="#DADADD" stroke-width="6" stroke-miterlimit="4.7764"/>
<path d="M61.064 103.617C63.5798 107.487 68.9597 115.809 70.3531 118.131C72.0948 121.034 74.9976 121.034 77.3199 119.292C79.1777 117.899 83.5127 114.841 85.4479 113.487C89.1248 130.904 96.5948 166.434 97.0593 169.221C97.6398 172.705 99.9621 173.866 102.865 173.285C105.187 172.821 145.246 163.803 164.986 159.352" stroke="#DADADD" stroke-width="6" stroke-linecap="round"/>
</svg>
