<svg width="293" height="314" viewBox="0 0 293 314" fill="none" xmlns="http://www.w3.org/2000/svg">
<g opacity="0.4" filter="url(#filter0_f_819_463)">
<rect x="20" y="20" width="253" height="274" rx="20" fill="#F2F2F7"/>
</g>
<rect x="20" y="20" width="253" height="274" rx="20" fill="#F6F6F7"/>
<g opacity="0.5" filter="url(#filter1_f_819_463)">
<rect x="68" y="230" width="160" height="38" rx="19" fill="url(#paint0_linear_819_463)"/>
</g>
<rect x="63" y="226" width="165" height="38" rx="19" fill="#BB57A4"/>
<path d="M116.38 247.14H112.732L112.06 249H110.908L113.932 240.684H115.192L118.204 249H117.052L116.38 247.14ZM116.068 246.252L114.556 242.028L113.044 246.252H116.068ZM119.114 245.688C119.114 245.016 119.25 244.428 119.522 243.924C119.794 243.412 120.166 243.016 120.638 242.736C121.118 242.456 121.654 242.316 122.246 242.316C122.758 242.316 123.234 242.436 123.674 242.676C124.114 242.908 124.45 243.216 124.682 243.6V240.12H125.786V249H124.682V247.764C124.466 248.156 124.146 248.48 123.722 248.736C123.298 248.984 122.802 249.108 122.234 249.108C121.65 249.108 121.118 248.964 120.638 248.676C120.166 248.388 119.794 247.984 119.522 247.464C119.25 246.944 119.114 246.352 119.114 245.688ZM124.682 245.7C124.682 245.204 124.582 244.772 124.382 244.404C124.182 244.036 123.91 243.756 123.566 243.564C123.23 243.364 122.858 243.264 122.45 243.264C122.042 243.264 121.67 243.36 121.334 243.552C120.998 243.744 120.73 244.024 120.53 244.392C120.33 244.76 120.23 245.192 120.23 245.688C120.23 246.192 120.33 246.632 120.53 247.008C120.73 247.376 120.998 247.66 121.334 247.86C121.67 248.052 122.042 248.148 122.45 248.148C122.858 248.148 123.23 248.052 123.566 247.86C123.91 247.66 124.182 247.376 124.382 247.008C124.582 246.632 124.682 246.196 124.682 245.7ZM127.223 245.688C127.223 245.016 127.359 244.428 127.631 243.924C127.903 243.412 128.275 243.016 128.747 242.736C129.227 242.456 129.763 242.316 130.355 242.316C130.867 242.316 131.343 242.436 131.783 242.676C132.223 242.908 132.559 243.216 132.791 243.6V240.12H133.895V249H132.791V247.764C132.575 248.156 132.255 248.48 131.831 248.736C131.407 248.984 130.911 249.108 130.343 249.108C129.759 249.108 129.227 248.964 128.747 248.676C128.275 248.388 127.903 247.984 127.631 247.464C127.359 246.944 127.223 246.352 127.223 245.688ZM132.791 245.7C132.791 245.204 132.691 244.772 132.491 244.404C132.291 244.036 132.019 243.756 131.675 243.564C131.339 243.364 130.967 243.264 130.559 243.264C130.151 243.264 129.779 243.36 129.443 243.552C129.107 243.744 128.839 244.024 128.639 244.392C128.439 244.76 128.339 245.192 128.339 245.688C128.339 246.192 128.439 246.632 128.639 247.008C128.839 247.376 129.107 247.66 129.443 247.86C129.779 248.052 130.151 248.148 130.559 248.148C130.967 248.148 131.339 248.052 131.675 247.86C132.019 247.66 132.291 247.376 132.491 247.008C132.691 246.632 132.791 246.196 132.791 245.7ZM140.272 243.324V247.2C140.272 247.52 140.34 247.748 140.476 247.884C140.612 248.012 140.848 248.076 141.184 248.076H141.988V249H141.004C140.396 249 139.94 248.86 139.636 248.58C139.332 248.3 139.18 247.84 139.18 247.2V243.324H138.328V242.424H139.18V240.768H140.272V242.424H141.988V243.324H140.272ZM146.179 249.108C145.563 249.108 145.003 248.968 144.499 248.688C144.003 248.408 143.611 248.012 143.323 247.5C143.043 246.98 142.903 246.38 142.903 245.7C142.903 245.028 143.047 244.436 143.335 243.924C143.631 243.404 144.031 243.008 144.535 242.736C145.039 242.456 145.603 242.316 146.227 242.316C146.851 242.316 147.415 242.456 147.919 242.736C148.423 243.008 148.819 243.4 149.107 243.912C149.403 244.424 149.551 245.02 149.551 245.7C149.551 246.38 149.399 246.98 149.095 247.5C148.799 248.012 148.395 248.408 147.883 248.688C147.371 248.968 146.803 249.108 146.179 249.108ZM146.179 248.148C146.571 248.148 146.939 248.056 147.283 247.872C147.627 247.688 147.903 247.412 148.111 247.044C148.327 246.676 148.435 246.228 148.435 245.7C148.435 245.172 148.331 244.724 148.123 244.356C147.915 243.988 147.643 243.716 147.307 243.54C146.971 243.356 146.607 243.264 146.215 243.264C145.815 243.264 145.447 243.356 145.111 243.54C144.783 243.716 144.519 243.988 144.319 244.356C144.119 244.724 144.019 245.172 144.019 245.7C144.019 246.236 144.115 246.688 144.307 247.056C144.507 247.424 144.771 247.7 145.099 247.884C145.427 248.06 145.787 248.148 146.179 248.148ZM153.778 244.812C153.778 243.996 153.962 243.264 154.33 242.616C154.698 241.96 155.198 241.448 155.83 241.08C156.47 240.712 157.178 240.528 157.954 240.528C158.866 240.528 159.662 240.748 160.342 241.188C161.022 241.628 161.518 242.252 161.83 243.06H160.522C160.29 242.556 159.954 242.168 159.514 241.896C159.082 241.624 158.562 241.488 157.954 241.488C157.37 241.488 156.846 241.624 156.382 241.896C155.918 242.168 155.554 242.556 155.29 243.06C155.026 243.556 154.894 244.14 154.894 244.812C154.894 245.476 155.026 246.06 155.29 246.564C155.554 247.06 155.918 247.444 156.382 247.716C156.846 247.988 157.37 248.124 157.954 248.124C158.562 248.124 159.082 247.992 159.514 247.728C159.954 247.456 160.29 247.068 160.522 246.564H161.83C161.518 247.364 161.022 247.984 160.342 248.424C159.662 248.856 158.866 249.072 157.954 249.072C157.178 249.072 156.47 248.892 155.83 248.532C155.198 248.164 154.698 247.656 154.33 247.008C153.962 246.36 153.778 245.628 153.778 244.812ZM163.047 245.688C163.047 245.016 163.183 244.428 163.455 243.924C163.727 243.412 164.099 243.016 164.571 242.736C165.051 242.456 165.583 242.316 166.167 242.316C166.743 242.316 167.243 242.44 167.667 242.688C168.091 242.936 168.407 243.248 168.615 243.624V242.424H169.719V249H168.615V247.776C168.399 248.16 168.075 248.48 167.643 248.736C167.219 248.984 166.723 249.108 166.155 249.108C165.571 249.108 165.043 248.964 164.571 248.676C164.099 248.388 163.727 247.984 163.455 247.464C163.183 246.944 163.047 246.352 163.047 245.688ZM168.615 245.7C168.615 245.204 168.515 244.772 168.315 244.404C168.115 244.036 167.843 243.756 167.499 243.564C167.163 243.364 166.791 243.264 166.383 243.264C165.975 243.264 165.603 243.36 165.267 243.552C164.931 243.744 164.663 244.024 164.463 244.392C164.263 244.76 164.163 245.192 164.163 245.688C164.163 246.192 164.263 246.632 164.463 247.008C164.663 247.376 164.931 247.66 165.267 247.86C165.603 248.052 165.975 248.148 166.383 248.148C166.791 248.148 167.163 248.052 167.499 247.86C167.843 247.66 168.115 247.376 168.315 247.008C168.515 246.632 168.615 246.196 168.615 245.7ZM172.657 243.492C172.849 243.116 173.121 242.824 173.473 242.616C173.833 242.408 174.269 242.304 174.781 242.304V243.432H174.493C173.269 243.432 172.657 244.096 172.657 245.424V249H171.565V242.424H172.657V243.492ZM177.373 243.324V247.2C177.373 247.52 177.441 247.748 177.577 247.884C177.713 248.012 177.949 248.076 178.285 248.076H179.089V249H178.105C177.497 249 177.041 248.86 176.737 248.58C176.433 248.3 176.281 247.84 176.281 247.2V243.324H175.429V242.424H176.281V240.768H177.373V242.424H179.089V243.324H177.373Z" fill="white"/>
<path d="M169.523 169.5H122.856C121.309 169.5 119.825 168.947 118.731 167.962C117.637 166.978 117.023 165.642 117.023 164.25V122.618L109.44 127.868C107.165 129.915 103.49 129.915 101.215 127.868L84.7062 113.272C82.4312 111.225 82.4312 107.917 84.7062 105.87L119.006 75H128.69C128.69 80.775 136.506 85.5 146.19 85.5C155.873 85.5 163.69 80.775 163.69 75H173.373L207.673 105.87C209.948 107.917 209.948 111.225 207.673 113.272L191.165 128.13C188.89 130.125 185.215 130.125 182.94 128.13L175.356 122.88V164.25C175.356 165.642 174.742 166.978 173.648 167.962C172.554 168.947 171.07 169.5 169.523 169.5Z" fill="#9696A0"/>
<defs>
<filter id="filter0_f_819_463" x="0" y="0" width="293" height="314" filterUnits="userSpaceOnUse" color-interpolation-filters="sRGB">
<feFlood flood-opacity="0" result="BackgroundImageFix"/>
<feBlend mode="normal" in="SourceGraphic" in2="BackgroundImageFix" result="shape"/>
<feGaussianBlur stdDeviation="10" result="effect1_foregroundBlur_819_463"/>
</filter>
<filter id="filter1_f_819_463" x="48" y="210" width="200" height="78" filterUnits="userSpaceOnUse" color-interpolation-filters="sRGB">
<feFlood flood-opacity="0" result="BackgroundImageFix"/>
<feBlend mode="normal" in="SourceGraphic" in2="BackgroundImageFix" result="shape"/>
<feGaussianBlur stdDeviation="10" result="effect1_foregroundBlur_819_463"/>
</filter>
<linearGradient id="paint0_linear_819_463" x1="68" y1="249" x2="228" y2="249" gradientUnits="userSpaceOnUse">
<stop stop-color="#BB57A4"/>
<stop offset="1" stop-color="#FF3D77"/>
</linearGradient>
</defs>
</svg>
