<svg width="293" height="314" viewBox="0 0 293 314" fill="none" xmlns="http://www.w3.org/2000/svg">
<g opacity="0.4" filter="url(#filter0_f_819_470)">
<rect x="20" y="20" width="253" height="274" rx="20" fill="#F2F2F7"/>
</g>
<rect x="20" y="20" width="253" height="274" rx="20" fill="#F6F6F7"/>
<g opacity="0.5" filter="url(#filter1_f_819_470)">
<rect x="68" y="230" width="160" height="38" rx="19" fill="#5496D1"/>
</g>
<rect x="63" y="226" width="165" height="38" rx="19" fill="#5496D1"/>
<path d="M129.276 240.636V249H128.184V245.208H123.924V249H122.832V240.636H123.924V244.308H128.184V240.636H129.276ZM131.705 241.356C131.497 241.356 131.321 241.284 131.177 241.14C131.033 240.996 130.961 240.82 130.961 240.612C130.961 240.404 131.033 240.228 131.177 240.084C131.321 239.94 131.497 239.868 131.705 239.868C131.905 239.868 132.073 239.94 132.209 240.084C132.353 240.228 132.425 240.404 132.425 240.612C132.425 240.82 132.353 240.996 132.209 241.14C132.073 241.284 131.905 241.356 131.705 241.356ZM132.233 242.424V249H131.141V242.424H132.233ZM135.186 243.492C135.378 243.116 135.65 242.824 136.002 242.616C136.362 242.408 136.798 242.304 137.31 242.304V243.432H137.022C135.798 243.432 135.186 244.096 135.186 245.424V249H134.094V242.424H135.186V243.492ZM144.57 245.46C144.57 245.668 144.558 245.888 144.534 246.12H139.278C139.318 246.768 139.538 247.276 139.938 247.644C140.346 248.004 140.838 248.184 141.414 248.184C141.886 248.184 142.278 248.076 142.59 247.86C142.91 247.636 143.134 247.34 143.262 246.972H144.438C144.262 247.604 143.91 248.12 143.382 248.52C142.854 248.912 142.198 249.108 141.414 249.108C140.79 249.108 140.23 248.968 139.734 248.688C139.246 248.408 138.862 248.012 138.582 247.5C138.302 246.98 138.162 246.38 138.162 245.7C138.162 245.02 138.298 244.424 138.57 243.912C138.842 243.4 139.222 243.008 139.71 242.736C140.206 242.456 140.774 242.316 141.414 242.316C142.038 242.316 142.59 242.452 143.07 242.724C143.55 242.996 143.918 243.372 144.174 243.852C144.438 244.324 144.57 244.86 144.57 245.46ZM143.442 245.232C143.442 244.816 143.35 244.46 143.166 244.164C142.982 243.86 142.73 243.632 142.41 243.48C142.098 243.32 141.75 243.24 141.366 243.24C140.814 243.24 140.342 243.416 139.95 243.768C139.566 244.12 139.346 244.608 139.29 245.232H143.442ZM157.119 242.304C157.631 242.304 158.087 242.412 158.487 242.628C158.887 242.836 159.203 243.152 159.435 243.576C159.667 244 159.783 244.516 159.783 245.124V249H158.703V245.28C158.703 244.624 158.539 244.124 158.211 243.78C157.891 243.428 157.455 243.252 156.903 243.252C156.335 243.252 155.883 243.436 155.547 243.804C155.211 244.164 155.043 244.688 155.043 245.376V249H153.963V245.28C153.963 244.624 153.799 244.124 153.471 243.78C153.151 243.428 152.715 243.252 152.163 243.252C151.595 243.252 151.143 243.436 150.807 243.804C150.471 244.164 150.303 244.688 150.303 245.376V249H149.211V242.424H150.303V243.372C150.519 243.028 150.807 242.764 151.167 242.58C151.535 242.396 151.939 242.304 152.379 242.304C152.931 242.304 153.419 242.428 153.843 242.676C154.267 242.924 154.583 243.288 154.791 243.768C154.975 243.304 155.279 242.944 155.703 242.688C156.127 242.432 156.599 242.304 157.119 242.304ZM167.574 245.46C167.574 245.668 167.562 245.888 167.538 246.12H162.282C162.322 246.768 162.542 247.276 162.942 247.644C163.35 248.004 163.842 248.184 164.418 248.184C164.89 248.184 165.282 248.076 165.594 247.86C165.914 247.636 166.138 247.34 166.266 246.972H167.442C167.266 247.604 166.914 248.12 166.386 248.52C165.858 248.912 165.202 249.108 164.418 249.108C163.794 249.108 163.234 248.968 162.738 248.688C162.25 248.408 161.866 248.012 161.586 247.5C161.306 246.98 161.166 246.38 161.166 245.7C161.166 245.02 161.302 244.424 161.574 243.912C161.846 243.4 162.226 243.008 162.714 242.736C163.21 242.456 163.778 242.316 164.418 242.316C165.042 242.316 165.594 242.452 166.074 242.724C166.554 242.996 166.922 243.372 167.178 243.852C167.442 244.324 167.574 244.86 167.574 245.46ZM166.446 245.232C166.446 244.816 166.354 244.46 166.17 244.164C165.986 243.86 165.734 243.632 165.414 243.48C165.102 243.32 164.754 243.24 164.37 243.24C163.818 243.24 163.346 243.416 162.954 243.768C162.57 244.12 162.35 244.608 162.294 245.232H166.446Z" fill="white"/>
<path d="M171.843 132.391C183.177 136.204 193 142.444 193 151.111V180H100V151.111C100 142.444 109.823 136.204 121.216 132.391L124.819 139.556L126.156 142.444C117.438 145.102 111.044 148.916 111.044 151.111V169.022H135.572L140.688 139.729L135.224 128.867C138.828 128.462 142.606 128.173 146.5 128.173C150.394 128.173 154.172 128.462 157.776 128.867L152.312 139.729L157.428 169.022H181.956V151.111C181.956 148.916 175.562 145.102 166.844 142.444L168.181 139.556L171.843 132.391ZM146.5 87.5556C140.106 87.5556 134.875 92.7556 134.875 99.1111C134.875 105.467 140.106 110.667 146.5 110.667C152.894 110.667 158.125 105.467 158.125 99.1111C158.125 92.7556 152.894 87.5556 146.5 87.5556ZM146.5 122.222C133.654 122.222 123.25 111.88 123.25 99.1111C123.25 86.3422 133.654 76 146.5 76C159.346 76 169.75 86.3422 169.75 99.1111C169.75 111.88 159.346 122.222 146.5 122.222Z" fill="#9696A0"/>
<defs>
<filter id="filter0_f_819_470" x="0" y="0" width="293" height="314" filterUnits="userSpaceOnUse" color-interpolation-filters="sRGB">
<feFlood flood-opacity="0" result="BackgroundImageFix"/>
<feBlend mode="normal" in="SourceGraphic" in2="BackgroundImageFix" result="shape"/>
<feGaussianBlur stdDeviation="10" result="effect1_foregroundBlur_819_470"/>
</filter>
<filter id="filter1_f_819_470" x="48" y="210" width="200" height="78" filterUnits="userSpaceOnUse" color-interpolation-filters="sRGB">
<feFlood flood-opacity="0" result="BackgroundImageFix"/>
<feBlend mode="normal" in="SourceGraphic" in2="BackgroundImageFix" result="shape"/>
<feGaussianBlur stdDeviation="10" result="effect1_foregroundBlur_819_470"/>
</filter>
</defs>
</svg>
